<?xml version="1.0" encoding="UTF-8"?>
<svg version="1.1" xmlns="http://www.w3.org/2000/svg" width="512" height="512">
<path d="M0 0 C168.96 0 337.92 0 512 0 C512 168.96 512 337.92 512 512 C343.04 512 174.08 512 0 512 C0 343.04 0 174.08 0 0 Z " fill="#E4E5E7" transform="translate(0,0)"/>
<path d="M0 0 C168.96 0 337.92 0 512 0 C512 168.96 512 337.92 512 512 C343.04 512 174.08 512 0 512 C0 343.04 0 174.08 0 0 Z M167.5 31.921875 C162.78555625 38.45334394 159.74461034 45.81263604 159.75949097 53.9225769 C159.75674164 55.083564 159.75399231 56.24455109 159.75115967 57.4407196 C159.75835022 58.70019913 159.76554077 59.95967865 159.77294922 61.25732422 C159.77351386 62.60794567 159.77319574 63.95856774 159.77206421 65.30918884 C159.77149176 68.96372986 159.78322854 72.61813887 159.79721212 76.27264929 C159.8097375 80.09632029 159.81089141 83.91999451 159.81326294 87.74368286 C159.8194724 94.97899426 159.83587599 102.21424503 159.85596192 109.44952977 C159.87833754 117.68892319 159.88931853 125.92831956 159.89935279 134.16773582 C159.9202427 151.11185891 159.95540828 168.05592304 160 185 C159.31623795 185.06081253 158.63247589 185.12162506 157.92799377 185.1842804 C156.58027138 185.31022835 156.58027138 185.31022835 155.20532227 185.4387207 C153.87030418 185.560877 153.87030418 185.560877 152.50831604 185.6855011 C138.87089909 187.39539434 125.5062733 198.19247204 116.98828125 208.4140625 C112.77517717 214.17166677 109.44443548 220.29454515 107 227 C106.60397583 228.07689087 106.60397583 228.07689087 106.19995117 229.17553711 C103.36262854 237.96162631 103.66068457 246.56998104 103.8125 255.6875 C103.82758249 257.27537785 103.84126455 258.86326965 103.85351562 260.45117188 C103.88622001 264.30113221 103.93780177 268.15040784 104 272 C103.38656738 272.05406006 102.77313477 272.10812012 102.14111328 272.16381836 C101.33399902 272.24253174 100.52688477 272.32124512 99.6953125 272.40234375 C98.89625488 272.47702881 98.09719727 272.55171387 97.27392578 272.62866211 C90.62030743 273.71521499 85.77377166 279.77702221 82 285 C79.13859401 290.88388449 78.98763592 297.16877787 80.65234375 303.46875 C83.43341248 310.43932571 87.87340693 315.2945856 94.4375 318.875 C97.19344798 319.74529936 99.40043715 320.24927413 102.22265625 320.5703125 C104.09244141 320.78300781 104.09244141 320.78300781 106 321 C106.31710938 321.93199219 106.63421875 322.86398437 106.9609375 323.82421875 C112.06699088 338.0685091 120.97335826 351.98667913 135 359 C135.495 368.9 135.495 368.9 136 379 C133.03 379.66 130.06 380.32 127 381 C124.27559771 381.8855133 121.60328268 382.79654702 118.921875 383.79296875 C118.18857971 384.06208572 117.45528442 384.3312027 116.69976807 384.60847473 C115.15924707 385.17615842 113.61984571 385.74688914 112.08154297 386.32055664 C109.77321793 387.17886682 107.45929333 388.02055887 105.14453125 388.86132812 C90.28928522 394.32603667 78.22790809 400.67272989 67 412 C66.33226563 412.63421875 65.66453125 413.2684375 64.9765625 413.921875 C61.00355238 417.98477223 58.39662187 422.61273587 55.8125 427.625 C55.49120117 428.23947998 55.16990234 428.85395996 54.83886719 429.48706055 C48.59445519 442.2293418 47.32525731 454.3399299 47.42358398 468.29858398 C47.43763947 471.0902009 47.40302444 473.87857665 47.36523438 476.66992188 C47.36428462 478.45833415 47.36613427 480.2467506 47.37109375 482.03515625 C47.35783554 482.86225601 47.34457733 483.68935577 47.33091736 484.54151917 C47.34345047 485.31680466 47.35598358 486.09209015 47.36889648 486.89086914 C47.36985825 487.56589981 47.37082001 488.24093048 47.37181091 488.93641663 C48.41425909 492.36082938 50.21344281 493.79168397 53 496 C56.09912335 496.73226729 59.12635932 496.67527421 62.29931641 496.63491821 C63.70925841 496.64661814 63.70925841 496.64661814 65.1476841 496.65855443 C68.29937483 496.6785084 71.44986267 496.66269611 74.6015625 496.64697266 C76.86017564 496.65374723 79.11878325 496.66264946 81.37738037 496.67352295 C87.51372538 496.69634152 93.64965065 496.68746907 99.78600311 496.67162752 C106.20321293 496.65898194 112.62038645 496.67070491 119.03759766 496.67855835 C130.50547778 496.68824197 141.97312512 496.67268901 153.44096589 496.64726166 C163.83769178 496.62492291 174.23413853 496.62880309 184.63085938 496.65185547 C196.70573955 496.67861627 208.78040888 496.68857155 220.85532951 496.67379415 C227.24665912 496.66599289 233.63779646 496.66497683 240.02911377 496.68147659 C246.03746969 496.69590381 252.0452977 496.68593087 258.0535965 496.65700531 C260.26069512 496.65038525 262.46783805 496.65230777 264.67491913 496.66331863 C267.68411016 496.67694876 270.69160138 496.65988807 273.70068359 496.63491821 C274.5776269 496.64607182 275.4545702 496.65722543 276.35808754 496.66871703 C280.69466021 496.5987421 282.48151041 496.39244736 286.04374695 493.69617271 C288.64140326 490.11599679 288.67013617 487.09930339 288.55859375 482.83984375 C288.55626236 482.05412491 288.55393097 481.26840607 288.55152893 480.45887756 C288.54180696 478.79710018 288.52005513 477.13535519 288.48706055 475.47387695 C288.43812913 472.96969736 288.42560239 470.46750285 288.41992188 467.96289062 C288.29678534 450.34734911 286.22875298 430.22875298 273 417 C274.19076377 416.99641747 274.19076377 416.99641747 275.40558338 416.99276257 C294.75370584 416.93353365 314.1017016 416.8579332 333.44968891 416.76428509 C342.80637292 416.71938847 352.16301939 416.67995974 361.51977539 416.65356445 C369.67855018 416.63053461 377.83720556 416.59708112 385.99588555 416.55129844 C390.3127433 416.52743329 394.62948328 416.50866068 398.94640541 416.50238609 C403.01680468 416.49630473 407.08690287 416.47619583 411.15719032 416.44572449 C412.64416405 416.43699287 414.13117721 416.43321147 415.61817551 416.43499184 C429.42543413 416.4462949 441.8121233 414.63636169 452.26171875 404.890625 C462.7887425 393.60472153 464.30291814 382.37830311 464.27415466 367.35649109 C464.27861345 365.98371443 464.28392959 364.61094034 464.29002339 363.23816997 C464.30413645 359.48492733 464.30586796 355.73176776 464.30542648 351.97850239 C464.30708057 347.9231612 464.32015791 343.86785365 464.33161926 339.81253052 C464.35442027 330.95510265 464.36238421 322.09769882 464.36744571 313.24024558 C464.37070766 307.70574638 464.37723304 302.17125409 464.3844471 296.6367588 C464.40400464 281.30088749 464.42041446 265.96502258 464.42332363 250.62913799 C464.42360499 249.15856842 464.42360499 249.15856842 464.42389202 247.65829038 C464.42425826 245.67101085 464.42462196 243.68373133 464.42498314 241.69645181 C464.42516595 240.71002359 464.42534876 239.72359537 464.42553711 238.70727539 C464.42571766 237.71963791 464.42589821 236.73200043 464.42608423 235.71443454 C464.42962644 219.70870036 464.45665556 203.70310065 464.494035 187.69741311 C464.53214079 171.24860254 464.55148126 154.79985868 464.55178314 138.35100299 C464.55236711 129.12190654 464.56082024 119.89297067 464.58978081 110.66391563 C464.6143248 102.80649912 464.62155706 94.94930179 464.60653328 87.09185728 C464.59937736 83.08619559 464.60016454 79.08096647 464.62294388 75.07535362 C464.6436344 71.40173873 464.64084113 67.72888618 464.62006903 64.05527864 C464.61495844 62.11104616 464.63427591 60.16679565 464.65473074 58.22266406 C464.53551158 45.66729646 460.15822386 35.25951948 451.34375 26.3203125 C441.97654265 17.76209124 431.35179195 15.68950421 418.98756409 15.73257446 C418.01912801 15.72804335 417.05069194 15.72351224 416.05290931 15.71884382 C412.82892464 15.70624929 409.60510997 15.70781698 406.38110352 15.70947266 C404.06105331 15.70348444 401.74100509 15.69667822 399.42095947 15.68911743 C393.13382071 15.67148307 386.84673642 15.66676321 380.55957532 15.66548586 C376.62916262 15.66406259 372.69876369 15.65978972 368.76835442 15.65449142 C355.75718271 15.636955 342.74604519 15.62765011 329.73486162 15.62915237 C328.68455849 15.62927224 328.68455849 15.62927224 327.61303711 15.62939453 C326.56144249 15.62951717 326.56144249 15.62951717 325.48860352 15.62964229 C314.12448765 15.63045538 302.76050425 15.61130745 291.39642669 15.5831178 C279.70949579 15.55435737 268.02262947 15.54057914 256.33566231 15.54230535 C249.78159677 15.54281485 243.22768135 15.53713777 236.67364693 15.51594925 C230.51019647 15.49656613 224.34703937 15.49644322 218.18357849 15.51098251 C215.925349 15.51307138 213.66710114 15.50836516 211.40890312 15.4962616 C208.3187325 15.48077498 205.22956922 15.49014031 202.13941956 15.50552368 C201.2525323 15.49523656 200.36564505 15.48494943 199.45188242 15.47435057 C186.76501915 15.61327797 175.4642879 22.26148875 167.5 31.921875 Z " fill="#FDFDFD" transform="translate(0,0)"/>
<path d="M0 0 C1.44775085 -0.00573832 1.44775085 -0.00573832 2.9247492 -0.01159257 C6.15572433 -0.02190315 9.38652112 -0.01793402 12.61750793 -0.01396179 C14.9354926 -0.01830943 17.25347582 -0.02349275 19.57145691 -0.02944946 C25.86711014 -0.04284755 32.16270336 -0.04341704 38.45836806 -0.04088616 C44.38196602 -0.03968131 50.30555387 -0.04589483 56.22914878 -0.05131962 C68.68262414 -0.06219261 81.1360724 -0.06003429 93.58954928 -0.05393478 C104.96609068 -0.04877037 116.34254632 -0.06000887 127.71907075 -0.07903299 C139.41382026 -0.09843849 151.10852926 -0.10666236 162.80329496 -0.10290974 C169.36355507 -0.10109847 175.92373671 -0.10371731 182.48398399 -0.11762428 C188.65721071 -0.13022063 194.83026629 -0.12824123 201.00349045 -0.11521339 C203.2645187 -0.11285173 205.52555905 -0.11556754 207.78657341 -0.12383652 C210.88297745 -0.13434063 213.97881121 -0.1261736 217.07519531 -0.11352539 C217.96121608 -0.12089968 218.84723686 -0.12827396 219.76010674 -0.13587171 C231.34202161 -0.03695144 242.06390782 3.39330362 250.61677551 11.37007141 C257.63140855 18.8903804 262.60045903 27.66605198 262.60953236 38.16884136 C262.61536455 39.33397469 262.62119674 40.49910802 262.62720567 41.69954842 C262.62342635 42.97025384 262.61964702 44.24095926 262.61575317 45.5501709 C262.61877496 46.92107025 262.62266458 48.29196791 262.62734574 49.6628626 C262.63763143 53.42482294 262.63544245 57.18668803 262.63116515 60.9486562 C262.62869888 65.00811423 262.63771098 69.06754928 262.64520264 73.1269989 C262.65795557 81.07884177 262.65974249 89.03065087 262.65740237 96.98250224 C262.6556193 103.44775345 262.65736863 109.91299442 262.66162682 116.3782444 C262.662222 117.2984508 262.66281719 118.2186572 262.66343042 119.16674865 C262.66464218 121.0361974 262.66585631 122.90564615 262.6670728 124.7750949 C262.67795114 142.31033963 262.67578476 159.84556514 262.66968795 177.38081095 C262.66452156 193.41324144 262.67576635 209.44561111 262.69478617 225.47802957 C262.71417255 241.94594911 262.72241897 258.41383989 262.71866292 274.88177091 C262.7167517 284.12480597 262.71923047 293.36778931 262.73337746 302.61081505 C262.74530261 310.48183779 262.74668362 318.352777 262.73458729 326.22380092 C262.72870585 330.23731277 262.72757864 334.25067191 262.73958969 338.26417351 C262.75047339 341.94386485 262.74731585 345.62327644 262.73332801 349.30295483 C262.72944443 351.25301801 262.74020804 353.20309374 262.75162488 355.15312737 C262.67426539 367.80035493 260.06542173 379.06569398 251.24568176 388.52241516 C239.57952195 399.4041263 227.40492405 400.55811289 212.01301575 400.57954407 C210.47475668 400.58885601 208.93650261 400.59902655 207.39825439 400.60998535 C203.24603775 400.63715675 199.0938548 400.65239638 194.9415729 400.66541338 C190.5933643 400.68110052 186.2452239 400.7078728 181.89706421 400.73344421 C173.6738021 400.7801335 165.45052702 400.81692513 157.22720057 400.85011709 C147.86074326 400.88840827 138.49435463 400.93780001 129.12795532 400.98810124 C109.87037281 401.09127451 90.61274832 401.18058218 71.35505676 401.26069641 C71.83426575 401.93108948 72.31347473 402.60148254 72.8072052 403.29219055 C73.43658997 404.18027405 74.06597473 405.06835754 74.71443176 405.98335266 C75.33801575 406.85999573 75.96159973 407.73663879 76.6040802 408.6398468 C85.73174927 422.30207873 86.59196649 438.42084501 86.70515442 454.32221985 C86.7217921 456.03492242 86.74918371 457.74755341 86.78718567 459.45991516 C86.84197008 461.94855673 86.86381644 464.43559572 86.87849426 466.92475891 C86.90116364 467.68632294 86.92383301 468.44788696 86.94718933 469.23252869 C86.93260524 472.90560799 86.56990106 474.96389577 84.39979553 477.96182823 C80.21832185 481.11896502 77.16441751 480.96059053 72.05574036 480.89561462 C70.64579835 480.90731455 70.64579835 480.90731455 69.20737267 480.91925085 C66.05568193 480.93920481 62.9051941 480.92339252 59.75349426 480.90766907 C57.49488113 480.91444364 55.23627351 480.92334587 52.97767639 480.93421936 C46.84133139 480.95703793 40.70540611 480.94816549 34.56905365 480.93232393 C28.15184383 480.91967836 21.73467031 480.93140132 15.31745911 480.93925476 C3.84957899 480.94893838 -7.61806836 480.93338542 -19.08590913 480.90795808 C-29.48263501 480.88561933 -39.87908176 480.8894995 -50.27580261 480.91255188 C-62.35068279 480.93931268 -74.42535212 480.94926796 -86.50027275 480.93449056 C-92.89160236 480.9266893 -99.2827397 480.92567324 -105.67405701 480.942173 C-111.68241293 480.95660022 -117.69024094 480.94662728 -123.69853973 480.91770172 C-125.90563835 480.91108166 -128.11278128 480.91300418 -130.31986237 480.92401505 C-133.3290534 480.93764517 -136.33654462 480.92058448 -139.34562683 480.89561462 C-140.22257013 480.90676823 -141.09951344 480.91792184 -142.00303078 480.92941344 C-146.41360704 480.85824439 -148.11447119 480.68136788 -151.68646812 477.84872627 C-153.61470706 475.30065205 -154.27331873 474.31266832 -154.29191589 471.19917297 C-154.3076767 470.43357056 -154.3234375 469.66796814 -154.3396759 468.87916565 C-154.32449417 467.65263275 -154.32449417 467.65263275 -154.30900574 466.40132141 C-154.31618118 465.10735443 -154.31618118 465.10735443 -154.32350159 463.7872467 C-154.32689987 461.95822837 -154.31770228 460.12914923 -154.29679871 458.30024719 C-154.27042117 455.56034105 -154.29633942 452.82468077 -154.32853699 450.08491516 C-154.37067964 428.83791578 -148.44946743 410.27740241 -133.32072449 394.90913391 C-132.43771667 394.03514954 -131.55470886 393.16116516 -130.64494324 392.26069641 C-129.99912292 391.59296204 -129.35330261 390.92522766 -128.68791199 390.23725891 C-118.25629779 380.19200079 -103.4007551 375.34657543 -90.01554871 370.67573547 C-87.35206571 369.74572483 -84.69555477 368.79755825 -82.03947449 367.84663391 C-80.3406243 367.24403135 -78.64141869 366.64242962 -76.94181824 366.04194641 C-76.15128052 365.76080994 -75.3607428 365.47967346 -74.54624939 365.1900177 C-71.46263808 364.11829078 -68.93415881 363.26069641 -65.64494324 363.26069641 C-64.63838628 351.17712362 -64.63838628 351.17712362 -68.87931824 340.46772766 C-71.68923992 338.52876206 -71.68923992 338.52876206 -74.72306824 336.89741516 C-82.89771516 332.31830144 -89.92736304 322.19135448 -92.51603699 313.25288391 C-92.78545105 312.26546204 -93.05486511 311.27804016 -93.33244324 310.26069641 C-94.13601594 307.47685559 -94.13601594 307.47685559 -95.64494324 305.26069641 C-98.46667829 304.12755871 -100.94355492 303.83018685 -103.96525574 303.55366516 C-110.31031616 302.85996322 -114.29322451 297.91425426 -118.16447449 293.25679016 C-122.34689829 287.61769105 -122.40725362 281.03464435 -121.64494324 274.26069641 C-119.67927149 267.50443542 -114.81223951 261.81543021 -108.84806824 258.15913391 C-105.01111336 256.34252253 -101.81544512 256.16125948 -97.64494324 256.26069641 C-97.67112732 255.31452454 -97.6973114 254.36835266 -97.72428894 253.39350891 C-97.81647099 249.80033609 -97.87278472 246.2072612 -97.91960144 242.61323547 C-97.94437142 241.07334181 -97.9781984 239.53356071 -98.0221405 237.99409485 C-98.54150353 219.2970257 -93.67274191 203.30339126 -81.20744324 188.88569641 C-72.15387013 179.36121598 -60.54570349 172.24793261 -47.64494324 169.26069641 C-45.64518316 169.22971828 -43.64462349 169.22493462 -41.64494324 169.26069641 C-41.6495522 168.5656966 -41.65416117 167.87069679 -41.6589098 167.15463638 C-41.76959253 150.20137733 -41.85219824 133.24823353 -41.9040041 116.29469681 C-41.92972644 108.09589365 -41.9647618 99.89733248 -42.0221405 91.69868469 C-42.0721594 84.54821245 -42.10427759 77.39791556 -42.11538571 70.24727321 C-42.12187345 66.46506065 -42.13699438 62.6833495 -42.17359352 58.90129852 C-42.20784664 55.3323434 -42.21793825 51.76409024 -42.21048164 48.19498634 C-42.21248643 46.2792115 -42.23922691 44.36351094 -42.26704407 42.44793701 C-42.1933011 29.90336696 -37.79079624 19.50766998 -28.98869324 10.58100891 C-20.60474825 2.9211319 -11.19355236 -0.04715255 0 0 Z M-19.45744324 23.57319641 C-20.00013855 24.10557922 -20.54283386 24.63796204 -21.10197449 25.18647766 C-26.33216667 32.21744488 -26.05944577 38.9682673 -25.98551941 47.44795227 C-25.98595749 48.76570648 -25.98639557 50.08346069 -25.98684692 51.44114685 C-25.98770445 55.03784933 -25.97011839 58.63424907 -25.94912505 62.23088145 C-25.93031755 65.99581395 -25.92860461 69.76075409 -25.92504883 73.52572632 C-25.91574028 80.64771085 -25.89114274 87.76955652 -25.86100036 94.89148003 C-25.82741916 103.00271387 -25.81096101 111.11395449 -25.79591405 119.22524059 C-25.76459203 135.90380702 -25.71185486 152.58223397 -25.64494324 169.26069641 C-24.53992966 169.52787476 -23.43491608 169.7950531 -22.29641724 170.07032776 C-20.83563988 170.42818284 -19.37491358 170.78624639 -17.91423035 171.14448547 C-17.18720665 171.31968719 -16.46018295 171.49488892 -15.71112823 171.67539978 C-1.39516642 175.20341725 11.58336456 184.66519526 19.35505676 197.26069641 C27.34850461 211.47700043 29.80755686 223.80421009 30.04255676 239.94819641 C30.07580394 241.53611387 30.11030015 243.1240057 30.14607239 244.71186829 C30.23011827 248.56133392 30.29731873 252.41075002 30.35505676 256.26069641 C31.09111145 256.43375305 31.82716614 256.60680969 32.58552551 256.78511047 C41.70927955 259.07207524 47.35672437 262.44519287 52.41755676 270.57319641 C54.33286725 278.106751 54.31097592 285.15982062 50.75349426 292.18647766 C47.00136103 297.75179259 41.98056529 301.85101375 35.35505676 303.26069641 C34.17943176 303.21944641 33.00380676 303.17819641 31.79255676 303.13569641 C28.21875832 303.87746134 28.21875832 303.87746134 27.01130676 306.63960266 C26.17211217 308.74565831 25.36662638 310.86535629 24.58943176 312.99507141 C20.48159666 323.86263518 13.51734699 332.97676187 3.35505676 338.57319641 C0.51037694 340.30639912 0.51037694 340.30639912 -1.64494324 343.26069641 C-2.25813207 346.71181869 -2.11735284 350.06256166 -1.95744324 353.55366516 C-1.93488464 354.48642273 -1.91232605 355.4191803 -1.88908386 356.38020325 C-1.83032801 358.67535378 -1.74824983 360.9671907 -1.64494324 363.26069641 C-0.46577332 363.68367004 0.71339661 364.10664368 1.92829895 364.54243469 C6.35924034 366.13407503 10.78657884 367.73554298 15.21296692 369.33979797 C17.11859359 370.02895082 19.02515026 370.71553825 20.93269348 371.39936829 C23.69584259 372.39045061 26.4553633 373.39113055 29.21443176 374.39350891 C30.04932129 374.69064789 30.88421082 374.98778687 31.74440002 375.29393005 C35.27141895 376.58377982 38.62726542 377.83025044 41.86977482 379.74800491 C50.75219313 384.95655051 58.77870948 385.10465818 68.73078918 385.00532532 C70.45193357 385.01019101 72.17307226 385.01763918 73.89419556 385.02745056 C78.5347439 385.04613789 83.17443893 385.02753238 87.81492019 385.0007863 C92.68737394 384.97802367 97.55978978 384.9863823 102.43228149 384.99028015 C110.6087475 384.99204142 118.7848804 384.9699786 126.96125793 384.93305969 C136.3988368 384.89068867 145.83592884 384.88371635 155.27358359 384.89618361 C164.37725096 384.90759132 173.48074786 384.89625839 182.58439064 384.87383652 C186.44822166 384.86457582 190.3119479 384.86278314 194.17578697 384.86700821 C198.72737751 384.87078887 203.27847584 384.85445354 207.82995415 384.82288742 C209.49516005 384.81443879 211.16041606 384.8126756 212.825634 384.81826782 C222.45396181 384.84568604 230.88245989 384.75935656 238.65974426 378.36616516 C239.43704895 377.41677063 239.43704895 377.41677063 240.23005676 376.44819641 C240.76372864 375.8230011 241.29740051 375.19780579 241.84724426 374.55366516 C246.76520519 367.07479712 246.78461692 360.70116276 246.74273682 351.90670776 C246.74691261 350.54105455 246.75239148 349.1754048 246.75905663 347.80976146 C246.77349775 344.06703144 246.76927076 340.32452187 246.76188982 336.58177984 C246.75715715 332.541473 246.76966885 328.50121379 246.77990723 324.46092224 C246.79709844 316.54964707 246.7979346 308.63845131 246.79269432 300.72716231 C246.78865211 294.29670655 246.79009679 287.86627426 246.79544258 281.43581963 C246.796191 280.52043327 246.79693943 279.60504691 246.79771053 278.66192157 C246.79924201 276.80229115 246.80078036 274.94266074 246.80232549 273.08303034 C246.81605162 255.6461028 246.81061198 238.20922013 246.79914028 220.77229362 C246.78920706 204.82194451 246.80214991 188.87171139 246.82607447 172.92138017 C246.85045967 156.54044809 246.86007482 140.15957005 246.85342175 123.77862018 C246.84992833 114.58318931 246.85216972 105.38784765 246.86967278 96.1924305 C246.88438746 88.36487337 246.88503977 80.53746828 246.86760186 72.70991416 C246.85908355 68.71697878 246.85696245 64.7243151 246.87225342 60.73139381 C246.88608591 57.07402397 246.88135639 53.41715896 246.86201418 49.75981843 C246.85646991 47.81454234 246.87053773 45.86924065 246.88536829 43.9240132 C246.81727312 35.84348144 245.8637316 30.34812173 240.46052551 24.05366516 C239.82759583 23.52386047 239.19466614 22.99405579 238.54255676 22.44819641 C237.91736145 21.9055011 237.29216614 21.36280579 236.64802551 20.80366516 C230.32092247 16.54607453 225.10117482 15.82258638 217.64559937 15.87301636 C216.68562811 15.86763082 215.72565686 15.86224528 214.73659557 15.85669655 C211.52928771 15.84242247 208.32239289 15.84951946 205.11506653 15.85664368 C202.81176929 15.85093985 200.50847489 15.84397554 198.20518494 15.83584595 C191.95522087 15.81790128 185.7053971 15.8190854 179.45541501 15.82478833 C174.23661822 15.82787817 169.01784846 15.82179003 163.79905552 15.81574959 C150.78343598 15.80089875 137.76789525 15.8045215 124.752276 15.81661289 C113.45780753 15.82654508 102.16350289 15.81360358 90.86905969 15.7896787 C79.26129274 15.76527606 67.65360887 15.75608219 56.04581684 15.76233143 C49.53315388 15.76570288 43.02062629 15.76327313 36.50798225 15.7460804 C30.38394764 15.73061915 24.26022598 15.7345581 18.13620377 15.75338554 C15.89004133 15.75707359 13.64385574 15.75395673 11.39771461 15.74349976 C8.32861483 15.73030347 5.26055312 15.74182605 2.1914978 15.75949097 C1.30520252 15.74988596 0.41890724 15.74028095 -0.49424547 15.73038489 C-7.98094496 15.81888863 -14.14169602 18.15397966 -19.45744324 23.57319641 Z " fill="#020202" transform="translate(201.6449432373047,15.739303588867188)"/>
<path d="M0 0 C6.55198296 5.40427166 10.39177894 12.83244538 11.38330078 21.2565918 C11.53598172 24.82544585 11.54596226 28.36584944 11.5 31.9375 C11.52320313 33.73477539 11.52320313 33.73477539 11.546875 35.56835938 C11.5090924 44.23474222 9.872345 51.25531 6 59 C6.53367187 59.12375 7.06734375 59.2475 7.6171875 59.375 C18.08447957 62.2725203 25.21312646 68.94518531 30.59375 78.234375 C34.22908465 85.38386647 35.29124881 91.85967134 35.5 99.8125 C35.53085693 100.54227051 35.56171387 101.27204102 35.59350586 102.02392578 C35.59392405 105.6562911 35.19572613 107.72490469 33.07861328 110.70053101 C28.75953536 113.92652428 25.40943108 113.70435472 20.1484375 113.64697266 C19.16087463 113.65573425 18.17331177 113.66449585 17.15582275 113.67352295 C13.89510008 113.69550912 10.63573619 113.6809662 7.375 113.6640625 C5.10725647 113.66743084 2.8395147 113.6722836 0.57177734 113.67855835 C-4.17953693 113.68592866 -8.93038102 113.6752185 -13.68164062 113.65185547 C-19.77179387 113.62336828 -25.86084543 113.63977131 -31.95095825 113.66971779 C-36.63330383 113.68778607 -41.31538825 113.68203473 -45.9977417 113.66907883 C-48.24322642 113.66574355 -50.48873487 113.66983612 -52.73419189 113.68147659 C-55.87291258 113.69417694 -59.00984967 113.67481801 -62.1484375 113.64697266 C-63.07638123 113.65709381 -64.00432495 113.66721497 -64.96038818 113.67764282 C-69.49962218 113.60304221 -71.39454282 113.47405379 -75.07528687 110.59214783 C-76.99964801 108.00047405 -77.6383845 106.93463693 -77.6640625 103.77734375 C-77.67421387 102.99721924 -77.68436523 102.21709473 -77.69482422 101.41333008 C-77.67178223 100.59630615 -77.64874023 99.77928223 -77.625 98.9375 C-77.61098145 98.09276123 -77.59696289 97.24802246 -77.58251953 96.37768555 C-77.30486854 89.14287434 -75.68491545 83.28199681 -72 77 C-71.5771875 76.26652344 -71.154375 75.53304687 -70.71875 74.77734375 C-66.19862652 67.95773885 -58.73673537 61.78707606 -50.8125 59.5 C-49.884375 59.335 -48.95625 59.17 -48 59 C-48.27714844 58.39671875 -48.55429687 57.7934375 -48.83984375 57.171875 C-49.20207031 56.37265625 -49.56429688 55.5734375 -49.9375 54.75 C-50.29714844 53.96109375 -50.65679687 53.1721875 -51.02734375 52.359375 C-53.70392971 45.8667729 -53.25938124 39.24272812 -53.3125 32.3125 C-53.34150391 31.07048828 -53.37050781 29.82847656 -53.40039062 28.54882812 C-53.45181163 21.08487165 -52.83135667 15.46614154 -49 9 C-48.54238281 8.20207031 -48.08476562 7.40414062 -47.61328125 6.58203125 C-35.49672584 -9.90085043 -16.26958465 -10.73056776 0 0 Z " fill="#030203" transform="translate(333,71)"/>
<path d="M0 0 C0.99 1.051875 0.99 1.051875 2 2.125 C8.84198011 8.90916056 15.61539517 12.73689839 25 15 C25.07471359 20.51347971 25.12886615 26.02665822 25.16479492 31.54052734 C25.17978865 33.41232443 25.2001905 35.28408694 25.22631836 37.15576172 C25.49771098 57.11110129 25.49771098 57.11110129 22 65 C21.58621094 66.0003125 21.17242187 67.000625 20.74609375 68.03125 C13.48576663 81.72834474 3.0011791 89.26209937 -11.4375 94.16796875 C-24.85493113 97.3016451 -37.51572551 94.61487852 -49.265625 87.84375 C-60.06979692 80.55865122 -67.52213128 69.94682712 -70.58978271 57.2562561 C-71.30337144 53.33141194 -71.24456398 49.44634719 -71.1953125 45.46875 C-71.19106766 44.15396667 -71.19106766 44.15396667 -71.18673706 42.81262207 C-71.17563492 40.04160301 -71.15054954 37.27091965 -71.125 34.5 C-71.11495729 32.6093797 -71.10583371 30.71875429 -71.09765625 28.828125 C-71.07572835 24.21862271 -71.04126845 19.60936806 -71 15 C-69.69442139 14.98541748 -68.38884277 14.97083496 -67.04370117 14.95581055 C-62.15492689 14.89741343 -57.26659345 14.82018595 -52.37817383 14.73754883 C-50.27082526 14.70449301 -48.16339227 14.67640224 -46.0559082 14.65356445 C-43.00956566 14.6196601 -39.9639835 14.56732943 -36.91796875 14.51171875 C-35.99042282 14.50532883 -35.06287689 14.4989389 -34.10722351 14.49235535 C-22.02911028 14.22674564 -10.62731898 10.77897831 -1.875 2.125 C-1.25625 1.42375 -0.6375 0.7225 0 0 Z " fill="#FBC378" transform="translate(191,257)"/>
<path d="M0 0 C1.47045898 1.74072266 1.47045898 1.74072266 2.99609375 4.1640625 C3.55490234 5.03933594 4.11371094 5.91460937 4.68945312 6.81640625 C5.26630859 7.74324219 5.84316406 8.67007812 6.4375 9.625 C7.58189612 11.42977319 8.72642424 13.23446269 9.87109375 15.0390625 C10.4110498 15.89532227 10.95100586 16.75158203 11.50732422 17.63378906 C12.24619873 18.80506348 12.24619873 18.80506348 13 20 C13.40621582 20.64420898 13.81243164 21.28841797 14.23095703 21.95214844 C16.12145225 24.99100109 16.12145225 24.99100109 19 27 C21.98051215 27.40643347 24.09500455 27.61044504 26.65625 25.8828125 C28.12313206 24.61007659 29.56299148 23.30637138 31 22 C31.66 22 32.32 22 33 22 C37.60142555 27.14276973 37.34938771 31.33135317 37 38 C36.66983801 41.74586231 36.19790199 45.46232724 35.6875 49.1875 C35.56955078 50.11369141 35.45160156 51.03988281 35.33007812 51.99414062 C34.24917142 60.11479867 32.61637335 67.91813326 31 76 C20.11 76 9.22 76 -2 76 C-2 65.44 -2 54.88 -2 44 C-7.28 44 -12.56 44 -18 44 C-18 54.56 -18 65.12 -18 76 C-28.56 76 -39.12 76 -50 76 C-50.061875 71.7925 -50.12375 67.585 -50.1875 63.25 C-50.21481201 61.9496582 -50.24212402 60.64931641 -50.27026367 59.30957031 C-50.38653689 42.76126653 -45.21299164 28.41852094 -33.6328125 16.34765625 C-24.93740415 8.59403545 -12.04997013 0 0 0 Z " fill="#3D98E0" transform="translate(114,404)"/>
<path d="M0 0 C14.83364503 2.51514598 28.74467387 9.76728523 38.33984375 21.5078125 C40.57725282 24.86655836 42.47169654 28.34843121 44.3125 31.9375 C44.81958496 32.92182007 44.81958496 32.92182007 45.33691406 33.92602539 C50.00961441 43.50695479 50.26965849 52.51459191 50.125 63.0625 C50.08375 67.331875 50.0425 71.60125 50 76 C39.44 76 28.88 76 18 76 C18 65.44 18 54.88 18 44 C12.72 44 7.44 44 2 44 C2 54.56 2 65.12 2 76 C-8.89 76 -19.78 76 -31 76 C-32.34795429 68.00213787 -33.688793 60.00388084 -35 52 C-35.12729492 51.22462891 -35.25458984 50.44925781 -35.38574219 49.65039062 C-38.58979059 29.84879417 -38.58979059 29.84879417 -35 24.375 C-34.34 23.59125 -33.68 22.8075 -33 22 C-30.74194052 23.04838476 -29.05549438 23.94648757 -27.25 25.6875 C-24.39362597 27.35371818 -22.23927322 27.16858201 -19.01904297 26.69360352 C-15.2780349 25.40845189 -13.83518124 22.41972999 -11.9375 19.125 C-11.52193848 18.45331787 -11.10637695 17.78163574 -10.67822266 17.08959961 C-9.83613516 15.72530113 -9.00462006 14.35441749 -8.18408203 12.97705078 C-6.47862265 10.12946108 -4.67483347 7.35133287 -2.875 4.5625 C-1.91493205 3.0427611 -0.95584932 1.52239577 0 0 Z " fill="#3D98E1" transform="translate(222,404)"/>
<path d="M0 0 C9.81065365 8.08184219 15.56658716 17.48720502 18 30 C18.41535125 35.33417561 18.24671524 40.66135634 18 46 C13.01240835 44.47964448 10.35992688 43.08639756 7 39 C4.30348201 33.47146061 3.15125517 28.27717514 2.27148438 22.16601562 C1.66986522 18.31112056 1.66986522 18.31112056 -0.91015625 15.57421875 C-3.80369975 14.77917035 -6.01202316 14.62650289 -9 15 C-11.701454 17.10772785 -12.85567545 18.36058744 -13.6171875 21.734375 C-13.70226562 22.72953125 -13.78734375 23.7246875 -13.875 24.75 C-15.03568705 32.97486855 -18.72391376 37.38589649 -25.125 42.4375 C-29.18256064 45.42771035 -32.58779525 46.12756237 -37.58496094 46.11352539 C-38.48559265 46.11344986 -39.38622437 46.11337433 -40.31414795 46.11329651 C-41.27782288 46.10813522 -42.2414978 46.10297394 -43.234375 46.09765625 C-44.22753723 46.0962413 -45.22069946 46.09482635 -46.24395752 46.09336853 C-49.41266912 46.08777588 -52.58130979 46.0752247 -55.75 46.0625 C-57.89973856 46.05748405 -60.04947823 46.05292131 -62.19921875 46.04882812 C-67.46616999 46.03780886 -72.73307993 46.021078 -78 46 C-78.0305125 43.44391904 -78.0527596 40.88820716 -78.0703125 38.33203125 C-78.07973877 37.61341919 -78.08916504 36.89480713 -78.09887695 36.15441895 C-78.15882173 24.50181943 -73.29752417 15.20753491 -66.75 5.75 C-47.67917678 -13.32082322 -21.78092933 -15.10737638 0 0 Z " fill="#56555A" transform="translate(198,210)"/>
<path d="M0 0 C52.8 0 105.6 0 160 0 C160 5.28 160 10.56 160 16 C107.2 16 54.4 16 0 16 C0 10.72 0 5.44 0 0 Z " fill="#000001" transform="translate(256,344)"/>
<path d="M0 0 C52.8 0 105.6 0 160 0 C160 5.28 160 10.56 160 16 C107.2 16 54.4 16 0 16 C0 10.72 0 5.44 0 0 Z " fill="#000001" transform="translate(256,248)"/>
<path d="M0 0 C52.8 0 105.6 0 160 0 C160 5.28 160 10.56 160 16 C107.2 16 54.4 16 0 16 C0 10.72 0 5.44 0 0 Z " fill="#000001" transform="translate(256,216)"/>
<path d="M0 0 C47.52 0 95.04 0 144 0 C144 5.28 144 10.56 144 16 C96.48 16 48.96 16 0 16 C0 10.72 0 5.44 0 0 Z " fill="#000001" transform="translate(272,280)"/>
<path d="M0 0 C36.96 0 73.92 0 112 0 C112 5.28 112 10.56 112 16 C75.04 16 38.08 16 0 16 C0 10.72 0 5.44 0 0 Z " fill="#000001" transform="translate(272,312)"/>
<path d="M0 0 C0.87878815 -0.0066568 1.75757629 -0.0133136 2.66299438 -0.02017212 C4.5135897 -0.03025168 6.36422101 -0.0349906 8.21484375 -0.03466797 C11.0240552 -0.03903915 13.83169104 -0.07540246 16.640625 -0.11328125 C18.44791136 -0.11915108 20.25520509 -0.12311936 22.0625 -0.125 C22.890914 -0.13937103 23.719328 -0.15374207 24.57284546 -0.16854858 C31.72792289 -0.1133476 37.73556966 1.83665888 43.22265625 6.51953125 C43.84269531 7.26332031 44.46273437 8.00710937 45.1015625 8.7734375 C45.73964844 9.51464844 46.37773437 10.25585938 47.03515625 11.01953125 C50.36313955 15.752131 50.6640625 18.36839152 50.6640625 24.3359375 C24.2640625 24.3359375 -2.1359375 24.3359375 -29.3359375 24.3359375 C-29.3359375 17.11634377 -28.15431997 13.42636461 -23.3125 8.1171875 C-16.02257265 1.25022522 -9.72175858 0.02599181 0 0 Z " fill="#3D98E1" transform="translate(301.3359375,143.6640625)"/>
<path d="M0 0 C4.45107288 3.96987581 5.4740165 6.1060385 8 12 C8 17.28 8 22.56 8 28 C-23.68 28 -55.36 28 -88 28 C-88 25.36 -88 22.72 -88 20 C-86.96905212 19.99635437 -85.93810425 19.99270874 -84.87591553 19.98895264 C-75.16431719 19.95202533 -65.4530366 19.89427761 -55.74168015 19.81609726 C-50.7488345 19.77657329 -45.75616653 19.74440899 -40.76318359 19.72900391 C-35.94542577 19.71386967 -31.12815624 19.67948188 -26.31061554 19.63169098 C-24.47184745 19.61684374 -22.63300966 19.60895707 -20.79418182 19.60811615 C-18.22000454 19.60575474 -15.64718579 19.57874327 -13.07324219 19.54589844 C-12.31151199 19.5509288 -11.5497818 19.55595917 -10.76496887 19.56114197 C-7.32433821 19.49313422 -5.34398156 19.25167659 -2.5335083 17.19537354 C-0.33521175 14.04828783 -0.32722593 10.96386514 -0.25 7.25 C-0.20552734 6.20392578 -0.20552734 6.20392578 -0.16015625 5.13671875 C-0.08981542 3.42509187 -0.04260054 1.71254185 0 0 Z " fill="#D7D6DA" transform="translate(368,164)"/>
<path d="M0 0 C5.28 0 10.56 0 16 0 C16.99 1.98 17.98 3.96 19 6 C21.77100394 7.38550197 23.9334706 7.1877467 27 7 C30.52360997 5.06008639 30.52360997 5.06008639 32 0 C37.28 0 42.56 0 48 0 C47.31395357 7.95813854 45.65861536 12.67026867 39.6875 18.25 C33.59406794 23.37513387 28.61736532 24.49000029 20.7421875 24.30859375 C13.94477062 23.54364228 9.06966564 19.81641368 4.4765625 14.9296875 C0.8317392 10.166347 0 5.93200205 0 0 Z " fill="#060303" transform="translate(144,312)"/>
<path d="M0 0 C2.97 0.495 2.97 0.495 6 1 C7.41232906 1.0828208 8.82743416 1.13043704 10.2421875 1.1328125 C11.37720703 1.13474609 11.37720703 1.13474609 12.53515625 1.13671875 C13.30730469 1.13285156 14.07945312 1.12898438 14.875 1.125 C15.63941406 1.12886719 16.40382812 1.13273437 17.19140625 1.13671875 C22.21154831 1.12819559 27.03052929 0.71315867 32 0 C32 4.29 32 8.58 32 13 C24.47464719 18.18989849 18.08619817 19.35770777 9 18 C5.56352798 16.65690447 3.06394512 15.1130656 0 13 C0 8.71 0 4.42 0 0 Z " fill="#F9B65D" transform="translate(152,366)"/>
<path d="M0 0 C0.45472262 6.36611665 -0.3570474 10.68293973 -4 16 C-8.09369748 19.99135504 -10.8238703 20.83880521 -16.375 21.25 C-21.68776235 20.8836026 -24.71778315 19.34970194 -28.375 15.5 C-30 13 -30 13 -30 10 C-29.03960815 9.65219482 -29.03960815 9.65219482 -28.05981445 9.29736328 C-25.14373293 8.24076226 -22.22811289 7.18289344 -19.3125 6.125 C-18.30509766 5.76019531 -17.29769531 5.39539063 -16.25976562 5.01953125 C-15.28330078 4.66503906 -14.30683594 4.31054688 -13.30078125 3.9453125 C-12.40528564 3.62062988 -11.50979004 3.29594727 -10.5871582 2.96142578 C-8.8278934 2.30765728 -7.0839677 1.61139049 -5.35620117 0.87841797 C-3 0 -3 0 0 0 Z " fill="#FBC37A" transform="translate(328,107)"/>
<path d="M0 0 C2.68079481 1.39937489 4.86982061 2.79085158 6.75 5.1875 C6.75 6.5075 6.75 7.8275 6.75 9.1875 C6.19054687 9.33445312 5.63109375 9.48140625 5.0546875 9.6328125 C-1.56073224 11.48342831 -7.71358336 14.04537388 -13.953125 16.8828125 C-17.09837008 18.12749479 -19.90439504 18.77183393 -23.25 19.1875 C-23.55742993 13.34633137 -23.21207376 9.42049698 -20.25 4.1875 C-14.43947191 -1.95641904 -7.77213885 -3.75009278 0 0 Z " fill="#55555A" transform="translate(319.25,81.8125)"/>
<path d="M0 0 C0.66 0 1.32 0 2 0 C3.87632543 8.47250583 5.01466166 17.02652354 6.125 25.625 C6.30828522 27.02478002 6.49187683 28.42451995 6.67578125 29.82421875 C7.1201893 33.21575385 7.56051053 36.60782403 8 40 C3.38 40 -1.24 40 -6 40 C-5.31084765 34.62423197 -4.61698227 29.24910161 -3.91870117 23.87451172 C-3.68171944 22.04525318 -3.44603688 20.21582585 -3.21166992 18.38623047 C-2.8749821 15.75963837 -2.53365895 13.13368453 -2.19140625 10.5078125 C-2.03509483 9.27649094 -2.03509483 9.27649094 -1.87562561 8.02029419 C-1.11387171 2.22774341 -1.11387171 2.22774341 0 0 Z " fill="#F94F23" transform="translate(167,440)"/>
<path d="M0 0 C5.28 0 10.56 0 16 0 C16 5.28 16 10.56 16 16 C10.72 16 5.44 16 0 16 C0 10.72 0 5.44 0 0 Z " fill="#000000" transform="translate(400,312)"/>
<path d="M0 0 C5.28 0 10.56 0 16 0 C16 5.28 16 10.56 16 16 C10.72 16 5.44 16 0 16 C0 10.72 0 5.44 0 0 Z " fill="#020102" transform="translate(136,280)"/>
<path d="M0 0 C5.28 0 10.56 0 16 0 C16 5.28 16 10.56 16 16 C10.72 16 5.44 16 0 16 C0 10.72 0 5.44 0 0 Z " fill="#010102" transform="translate(184,280)"/>
<path d="M0 0 C3.21524305 1.40844718 5.32183868 3.10344786 7.75 5.625 C8.67039063 6.57246094 8.67039063 6.57246094 9.609375 7.5390625 C10.06828125 8.02117187 10.5271875 8.50328125 11 9 C9.53488945 13.15114655 7.92981935 16.6846781 5 20 C0.03135889 21.20209059 0.03135889 21.20209059 -3 20 C-5.50366443 17.25864591 -7.28191662 14.27997737 -9 11 C-7.59155282 7.78475695 -5.89655214 5.67816132 -3.375 3.25 C-2.74335938 2.63640625 -2.11171875 2.0228125 -1.4609375 1.390625 C-0.73777344 0.70226562 -0.73777344 0.70226562 0 0 Z " fill="#FA5025" transform="translate(167,404)"/>
<path d="M0 0 C2.97 0.495 2.97 0.495 6 1 C6 1.33 6 1.66 6 2 C4.35 2 2.7 2 1 2 C1 4.31 1 6.62 1 9 C1.99 9 2.98 9 4 9 C4 9.66 4 10.32 4 11 C5.32 11.33 6.64 11.66 8 12 C8 11.34 8 10.68 8 10 C10.7708983 9.97303991 13.5415345 9.95318048 16.3125 9.9375 C17.09818359 9.92912109 17.88386719 9.92074219 18.69335938 9.91210938 C19.45068359 9.90888672 20.20800781 9.90566406 20.98828125 9.90234375 C21.68477783 9.89710693 22.38127441 9.89187012 23.09887695 9.88647461 C25 10 25 10 28 11 C28 10.34 28 9.68 28 9 C29.32 8.67 30.64 8.34 32 8 C32 9.65 32 11.3 32 13 C25.68937986 17.67453344 20.20202749 18.76172541 12.3984375 18.5078125 C7.35411842 17.75406367 4.1744055 15.87890035 0 13 C0 8.71 0 4.42 0 0 Z " fill="#FCC377" transform="translate(152,366)"/>
<path d="M0 0 C-1.61010527 4.07376031 -4.53822271 6.76507069 -7.625 9.75 C-8.140625 10.25660156 -8.65625 10.76320313 -9.1875 11.28515625 C-10.45383339 12.52803902 -11.7263144 13.76465276 -13 15 C-15.46635494 12.59702034 -17.76225469 10.20626028 -19.8125 7.4375 C-20.25207031 6.85871094 -20.69164062 6.27992188 -21.14453125 5.68359375 C-21.42683594 5.12800781 -21.70914063 4.57242187 -22 4 C-21 1 -21 1 -18.70703125 -0.203125 C-11.58408804 -2.77930419 -6.84264295 -3.94767862 0 0 Z " fill="#1C81CD" transform="translate(151,396)"/>
<path d="M0 0 C0.969375 0.45375 1.93875 0.9075 2.9375 1.375 C1.46931332 4.48242423 -0.26275 7.27971739 -2.1875 10.125 C-2.72632813 10.92421875 -3.26515625 11.7234375 -3.8203125 12.546875 C-4.23023438 13.15015625 -4.64015625 13.7534375 -5.0625 14.375 C-15.30964829 5.80085551 -15.30964829 5.80085551 -19.0625 1.375 C-19.0625 0.715 -19.0625 0.055 -19.0625 -0.625 C-12.35062821 -5.09958119 -6.91485464 -2.91151775 0 0 Z " fill="#1982D1" transform="translate(204.0625,396.625)"/>
<path d="M0 0 C0.66 0.70125 1.32 1.4025 2 2.125 C5.35837097 5.49293898 9.16311992 8.20815486 13 11 C14.3347248 11.99814202 15.66844813 12.99762911 17 14 C14.36 14 11.72 14 9 14 C9 16.97 9 19.94 9 23 C3.72 23 -1.56 23 -7 23 C-7 21.02 -7 19.04 -7 17 C-5.68 17.33 -4.36 17.66 -3 18 C-3 18.99 -3 19.98 -3 21 C-0.36 21 2.28 21 5 21 C5 20.34 5 19.68 5 19 C4.01 18.67 3.02 18.34 2 18 C2.33 16.68 2.66 15.36 3 14 C2.34 14 1.68 14 1 14 C1.33 13.01 1.66 12.02 2 11 C2.66 10.67 3.32 10.34 4 10 C4 9.34 4 8.68 4 8 C3.01 7.34 2.02 6.68 1 6 C1 5.01 1 4.02 1 3 C-0.0828125 4.1446875 -0.0828125 4.1446875 -1.1875 5.3125 C-3.71721237 7.72978071 -6.00061185 9.26351212 -9 11 C-9.495 11.5775 -9.99 12.155 -10.5 12.75 C-11.2425 13.36875 -11.2425 13.36875 -12 14 C-14.6875 13.6875 -14.6875 13.6875 -17 13 C-14.24109616 10.88693047 -11.41900868 8.94686006 -8.5 7.0625 C-5.31656698 4.95944128 -2.54441127 2.876291 0 0 Z " fill="#F9C37F" transform="translate(191,257)"/>
<path d="M0 0 C1 3 1 3 0.07421875 4.98828125 C-0.61220703 6.13876953 -0.61220703 6.13876953 -1.3125 7.3125 C-4.66422136 13.59697755 -5.32309207 19.98844619 -6 27 C-6.99 27.33 -7.98 27.66 -9 28 C-9 35.59 -9 43.18 -9 51 C0.9 51 10.8 51 21 51 C21 40.77 21 30.54 21 20 C21.33 20 21.66 20 22 20 C22 30.56 22 41.12 22 52 C11.44 52 0.88 52 -10 52 C-10.061875 47.7925 -10.12375 43.585 -10.1875 39.25 C-10.21481201 37.9496582 -10.24212402 36.64931641 -10.27026367 35.30957031 C-10.34580351 24.55854557 -8.70820508 15.11612958 -3.3125 5.75 C-2.68988281 4.65171875 -2.06726563 3.5534375 -1.42578125 2.421875 C-0.95527344 1.62265625 -0.48476562 0.8234375 0 0 Z " fill="#4F93CA" transform="translate(74,428)"/>
<path d="M0 0 C0.79149948 -0.01283524 1.58299896 -0.02567047 2.39848328 -0.03889465 C3.2464296 -0.04628159 4.09437592 -0.05366852 4.96801758 -0.0612793 C5.85105057 -0.06935104 6.73408356 -0.07742279 7.64387512 -0.08573914 C9.51240084 -0.09955443 11.38095153 -0.11028798 13.24951172 -0.11816406 C15.14932717 -0.12966631 17.04911075 -0.15009026 18.94873047 -0.1796875 C21.70538109 -0.22261403 24.46107311 -0.23856868 27.21801758 -0.2487793 C28.05584274 -0.26628738 28.89366791 -0.28379547 29.75688171 -0.30183411 C36.97774808 -0.27566518 42.95423138 1.67596738 48.51879883 6.3605957 C49.14786133 7.10438477 49.77692383 7.84817383 50.42504883 8.61450195 C51.39958008 9.72631836 51.39958008 9.72631836 52.39379883 10.8605957 C54.03973369 13.35049206 54.55190867 15.23852324 54.92504883 18.17700195 C52.77666516 16.14070787 51.11352207 14.08278265 49.48754883 11.61450195 C47.59909046 8.90198902 46.15876335 7.25490679 42.92504883 6.17700195 C42.92504883 5.51700195 42.92504883 4.85700195 42.92504883 4.17700195 C39.95504883 4.17700195 36.98504883 4.17700195 33.92504883 4.17700195 C33.92504883 3.18700195 33.92504883 2.19700195 33.92504883 1.17700195 C21.71504883 1.17700195 9.50504883 1.17700195 -3.07495117 1.17700195 C-3.40495117 2.82700195 -3.73495117 4.47700195 -4.07495117 6.17700195 C-5.12682617 6.11512695 -6.17870117 6.05325195 -7.26245117 5.98950195 C-11.32456166 6.18927788 -12.81997596 6.88972208 -16.07495117 9.17700195 C-17.4009598 9.85812114 -18.73325166 10.52733693 -20.07495117 11.17700195 C-14.65468379 4.16140765 -9.10320661 0.12943764 0 0 Z " fill="#498FC6" transform="translate(296.074951171875,143.822998046875)"/>
<path d="M0 0 C16.83 0 33.66 0 51 0 C51 0.33 51 0.66 51 1 C45.06 1.495 45.06 1.495 39 2 C39 2.66 39 3.32 39 4 C38.01 4 37.02 4 36 4 C36 3.01 36 2.02 36 1 C30.72 1 25.44 1 20 1 C20 2.65 20 4.3 20 6 C23.63 6 27.26 6 31 6 C31.33 6.66 31.66 7.32 32 8 C26.72 8 21.44 8 16 8 C16 5.69 16 3.38 16 1 C11.05 1 6.1 1 1 1 C1 11.89 1 22.78 1 34 C0.67 34 0.34 34 0 34 C0 22.78 0 11.56 0 0 Z " fill="#F4C488" transform="translate(120,272)"/>
<path d="M0 0 C0.66 0 1.32 0 2 0 C3.87632543 8.47250583 5.01466166 17.02652354 6.125 25.625 C6.30828522 27.02478002 6.49187683 28.42451995 6.67578125 29.82421875 C7.1201893 33.21575385 7.56051053 36.60782403 8 40 C3.38 40 -1.24 40 -6 40 C-5.505 37.03 -5.505 37.03 -5 34 C-4.67 34 -4.34 34 -4 34 C-4 35.65 -4 37.3 -4 39 C-0.7 39 2.6 39 6 39 C5.52497469 35.7076862 5.04517832 32.41619262 4.5625 29.125 C4.42779297 28.18785156 4.29308594 27.25070312 4.15429688 26.28515625 C4.02216797 25.38925781 3.89003906 24.49335938 3.75390625 23.5703125 C3.63345947 22.74289551 3.5130127 21.91547852 3.38891602 21.06298828 C3.08743328 18.94672233 3.08743328 18.94672233 2 17 C1.01 16.67 0.02 16.34 -1 16 C-1.33 19.96 -1.66 23.92 -2 28 C-2.66 28 -3.32 28 -4 28 C-2.07289294 9.17995444 -2.07289294 9.17995444 0 0 Z " fill="#D4522E" transform="translate(167,440)"/>
<path d="M0 0 C2.79540093 5.03172167 3.12463356 9.70231851 3.09765625 15.39453125 C3.09515869 16.47839111 3.09266113 17.56225098 3.09008789 18.67895508 C3.08098389 20.0430249 3.07187988 21.40709473 3.0625 22.8125 C3.041875 27.164375 3.02125 31.51625 3 36 C-7.56 36 -18.12 36 -29 36 C-29 25.44 -29 14.88 -29 4 C-28.67 4 -28.34 4 -28 4 C-28 14.23 -28 24.46 -28 35 C-18.1 35 -8.2 35 2 35 C1.87625 31.6175 1.7525 28.235 1.625 24.75 C1.59100098 23.69006836 1.55700195 22.63013672 1.52197266 21.53808594 C1.4863623 20.69536133 1.45075195 19.85263672 1.4140625 18.984375 C1.36693115 17.69611816 1.36693115 17.69611816 1.31884766 16.38183594 C0.98117238 13.85935507 0.17419039 12.232848 -1 10 C-0.9765625 7.421875 -0.9765625 7.421875 -0.625 4.75 C-0.51414062 3.85796875 -0.40328125 2.9659375 -0.2890625 2.046875 C-0.19367188 1.37140625 -0.09828125 0.6959375 0 0 Z " fill="#4F93CA" transform="translate(269,444)"/>
<path d="M0 0 C0.33 0 0.66 0 1 0 C1.6875 3.25 1.6875 3.25 2 7 C1.01 8.32 0.02 9.64 -1 11 C24.41 11 49.82 11 76 11 C76 9.35 76 7.7 76 6 C76.33 6 76.66 6 77 6 C77 7.98 77 9.96 77 12 C50.6 12 24.2 12 -3 12 C-3 6.34968203 -2.64694025 4.63214543 0 0 Z " fill="#4D91C7" transform="translate(275,156)"/>
<path d="M0 0 C-1.36983503 3.16115776 -1.9890638 3.9927092 -5 6 C-5.33 4.35 -5.66 2.7 -6 1 C-7.45922693 1.11409593 -8.91740598 1.24165544 -10.375 1.375 C-11.18710938 1.44460938 -11.99921875 1.51421875 -12.8359375 1.5859375 C-15.20334191 1.82892588 -15.20334191 1.82892588 -17 4 C-15.21190271 8.33970917 -15.21190271 8.33970917 -11.8125 11.375 C-11.214375 11.58125 -10.61625 11.7875 -10 12 C-11.32 12.99 -12.64 13.98 -14 15 C-15.36656457 13.23871656 -16.71794085 11.46563912 -18.0625 9.6875 C-18.81660156 8.70136719 -19.57070312 7.71523438 -20.34765625 6.69921875 C-20.89292969 5.80847656 -21.43820313 4.91773438 -22 4 C-21 1 -21 1 -18.70703125 -0.203125 C-11.58408804 -2.77930419 -6.84264295 -3.94767862 0 0 Z " fill="#2D70A4" transform="translate(151,396)"/>
<path d="M0 0 C0 5.28 0 10.56 0 16 C-5 15 -5 15 -6.875 12.875 C-8.351157 9.10259879 -8.0775967 6.87934812 -7 3 C-4.5091717 0.42614409 -3.61594767 0 0 0 Z " fill="#EDB25E" transform="translate(104,288)"/>
<path d="M0 0 C5 1 5 1 6.875 2.5625 C8.53911579 6.16808422 8.18621503 9.2502867 7 13 C5.125 15 5.125 15 3 16 C2.01 16 1.02 16 0 16 C0 10.72 0 5.44 0 0 Z " fill="#E3AD65" transform="translate(232,288)"/>
<path d="M0 0 C5.28 0 10.56 0 16 0 C16 5.28 16 10.56 16 16 C10.72 16 5.44 16 0 16 C0 10.72 0 5.44 0 0 Z M2 2 C0.9187609 8.06050614 0.9187609 8.06050614 2 14 C5.68379022 15.17881287 9.15541573 15.21358801 13 15 C15.41486943 12.58513057 15.2961925 11.87292211 15.3125 8.5625 C15.32925781 7.78003906 15.34601563 6.99757813 15.36328125 6.19140625 C14.91293791 3.474819 14.21392484 2.60318696 12 1 C8.27013478 0.73358106 5.55353929 0.8154869 2 2 Z " fill="#110000" transform="translate(184,280)"/>
<path d="M0 0 C-2.65373834 1.76915889 -5.01433501 2.78216487 -7.98876953 3.85180664 C-18.79194554 7.79167702 -26.9415813 13.72339307 -35 22 C-34.67 20.35 -34.34 18.7 -34 17 C-33.34 17 -32.68 17 -32 17 C-31.67 16.01 -31.34 15.02 -31 14 C-30.34 13.67 -29.68 13.34 -29 13 C-28.67 12.01 -28.34 11.02 -28 10 C-23.94514086 6.75611269 -20.10341687 5.28363719 -15.1640625 3.796875 C-12.7096607 3.00281026 -12.7096607 3.00281026 -9.875 0.75 C-6.15918753 -1.51179889 -4.1345807 -0.99229937 0 0 Z " fill="#020E21" transform="translate(111,404)"/>
<path d="M0 0 C2.475 4.455 2.475 4.455 5 9 C2 8 2 8 0.8125 5.9375 C0.544375 5.298125 0.27625 4.65875 0 4 C-10.86500705 4.75309271 -10.86500705 4.75309271 -20 10 C-20.99 10 -21.98 10 -23 10 C-23 10.99 -23 11.98 -23 13 C-23.639375 13.28875 -24.27875 13.5775 -24.9375 13.875 C-27.15206079 14.82823451 -27.15206079 14.82823451 -28 17 C-31.0625 17.625 -31.0625 17.625 -34 18 C-25.93034593 9.12338053 -12.49097748 0 0 0 Z " fill="#4584B6" transform="translate(114,404)"/>
<path d="M0 0 C5.28 0 10.56 0 16 0 C16 5.28 16 10.56 16 16 C10.72 16 5.44 16 0 16 C0 10.72 0 5.44 0 0 Z M5.6875 1.4375 C3.8621875 1.7159375 3.8621875 1.7159375 2 2 C1.67 5.96 1.34 9.92 1 14 C5.26582143 14.85316429 8.69298294 15.24379342 13 15 C15.27216848 13.16262173 15.27216848 13.16262173 15.1953125 10.3984375 C15.17210937 9.40070313 15.14890625 8.40296875 15.125 7.375 C15.10695312 6.37210937 15.08890625 5.36921875 15.0703125 4.3359375 C15.04710937 3.56507813 15.02390625 2.79421875 15 2 C11.69633066 1.21892231 9.04344192 0.92557666 5.6875 1.4375 Z " fill="#110000" transform="translate(136,280)"/>
<path d="M0 0 C1.32 0.66 2.64 1.32 4 2 C4 2.99 4 3.98 4 5 C3.67 5.33 3.34 5.66 3 6 C2.63557767 7.66014616 2.30027117 9.32706064 2 11 C1.34 11 0.68 11 0 11 C-0.33 11.66 -0.66 12.32 -1 13 C-3.97 12.505 -3.97 12.505 -7 12 C-7.4375 9.9375 -7.4375 9.9375 -7 7 C-4.87919817 4.42739828 -2.49372439 2.20745501 0 0 Z " fill="#F85020" transform="translate(167,406)"/>
<path d="M0 0 C2.97 0.495 2.97 0.495 6 1 C6 1.33 6 1.66 6 2 C4.35 2 2.7 2 1 2 C1 4.31 1 6.62 1 9 C1.99 9 2.98 9 4 9 C4.185625 9.639375 4.37125 10.27875 4.5625 10.9375 C5.92592269 13.39175914 5.92592269 13.39175914 9.4375 13.75 C11.62121637 13.90324325 13.81091327 14 16 14 C16.33 14.66 16.66 15.32 17 16 C19.52733235 16.65555119 19.52733235 16.65555119 22 17 C22 17.33 22 17.66 22 18 C13.04158073 18.62307398 7.49750069 18.08305132 0 13 C0 8.71 0 4.42 0 0 Z " fill="#EDBF80" transform="translate(152,366)"/>
<path d="M0 0 C6.99252309 -0.07625818 13.98493835 -0.12868729 20.9777832 -0.16479492 C23.35510262 -0.17985252 25.73239439 -0.20030289 28.10961914 -0.22631836 C31.53278439 -0.26283403 34.95558132 -0.27975709 38.37890625 -0.29296875 C39.43646622 -0.30845261 40.49402618 -0.32393646 41.58363342 -0.33988953 C47.52379078 -0.34123484 51.7362829 0.18814373 57 3 C56.67 4.32 56.34 5.64 56 7 C54.27473958 5.99088542 52.54947917 4.98177083 50.82421875 3.97265625 C47.8134122 2.36732256 45.32728969 1.87437976 41.97509766 1.87060547 C41.17061188 1.86745331 40.3661261 1.86430115 39.53726196 1.86105347 C38.67160614 1.8630777 37.80595032 1.86510193 36.9140625 1.8671875 C36.02012787 1.86623077 35.12619324 1.86527405 34.20516968 1.86428833 C32.3138624 1.86360782 30.42255279 1.86545314 28.53125 1.86962891 C25.64317539 1.87496641 22.75525719 1.86968604 19.8671875 1.86328125 C18.02864549 1.8639423 16.19010358 1.86522402 14.3515625 1.8671875 C13.05915146 1.86415115 13.05915146 1.86415115 11.7406311 1.86105347 C7.69538872 1.87678041 3.94683618 1.98688146 0 3 C0 2.01 0 1.02 0 0 Z " fill="#01091B" transform="translate(287,143)"/>
<path d="M0 0 C2.64 0.33 5.28 0.66 8 1 C8.07471359 6.51347971 8.12886615 12.02665822 8.16479492 17.54052734 C8.17978865 19.41232443 8.2001905 21.28408694 8.22631836 23.15576172 C8.48676127 42.30597583 8.48676127 42.30597583 5 51 C4.67 51 4.34 51 4 51 C3.94527912 49.60461746 3.90688462 48.20859103 3.875 46.8125 C3.85179687 46.03519531 3.82859375 45.25789063 3.8046875 44.45703125 C4 42 4 42 4.98632812 39.85546875 C6.28844592 36.18746062 6.35400189 32.70193956 6.4140625 28.85546875 C6.43342865 28.08568192 6.4527948 27.31589508 6.4727478 26.52278137 C6.53225623 24.07779829 6.57881295 21.63276738 6.625 19.1875 C6.66320631 17.52406866 6.70225957 15.86065653 6.7421875 14.19726562 C6.83793383 10.13166759 6.92207009 6.06597699 7 2 C4.69 2 2.38 2 0 2 C0 1.34 0 0.68 0 0 Z " fill="#F1C48B" transform="translate(208,271)"/>
<path d="M0 0 C0.33 0 0.66 0 1 0 C1.22012462 5.01236481 1.41629924 10.02494499 1.59204102 15.0390625 C1.65476407 16.73819948 1.72358915 18.43712424 1.79907227 20.13574219 C2.96430425 46.63108425 2.96430425 46.63108425 -3.61450195 53.88134766 C-4.40171631 54.58050293 -5.18893066 55.2796582 -6 56 C-5.731875 55.21625 -5.46375 54.4325 -5.1875 53.625 C-4.795625 52.42875 -4.40375 51.2325 -4 50 C-3.75314453 49.40058594 -3.50628906 48.80117188 -3.25195312 48.18359375 C0.15259437 38.96329804 -0.43077013 29.06634403 -0.3125 19.375 C-0.2792774 17.4934665 -0.24478329 15.611955 -0.20898438 13.73046875 C-0.12464625 9.15376812 -0.05757174 4.57711238 0 0 Z " fill="#0B0000" transform="translate(216,272)"/>
<path d="M0 0 C0.969375 0.45375 1.93875 0.9075 2.9375 1.375 C1.64450306 4.25937779 0.27808637 6.24719421 -2.0625 8.375 C-2.0625 6.395 -2.0625 4.415 -2.0625 2.375 C-5.69673209 0.04909146 -8.83338331 0.21234167 -13.0625 0.375 C-13.3925 2.025 -13.7225 3.675 -14.0625 5.375 C-15.7699998 4.09437515 -17.43623596 2.75732443 -19.0625 1.375 C-19.0625 0.715 -19.0625 0.055 -19.0625 -0.625 C-12.35062821 -5.09958119 -6.91485464 -2.91151775 0 0 Z " fill="#3075A9" transform="translate(204.0625,396.625)"/>
<path d="M0 0 C2.25805948 1.04838476 3.94450562 1.94648757 5.75 3.6875 C9.31960732 5.76977093 12.00008179 4.77417772 16 4 C16.66 3.67 17.32 3.34 18 3 C17.67 4.32 17.34 5.64 17 7 C15.04196493 7.05389087 13.08351091 7.09274217 11.125 7.125 C10.03445312 7.14820313 8.94390625 7.17140625 7.8203125 7.1953125 C5 7 5 7 3 5 C1.68 5.33 0.36 5.66 -1 6 C-1.33 11.28 -1.66 16.56 -2 22 C-2.33 22 -2.66 22 -3 22 C-4.17561037 16.41585072 -5.54112796 9.4052871 -3.10546875 4.0234375 C-2 2.375 -2 2.375 0 0 Z " fill="#4C89BA" transform="translate(189,426)"/>
<path d="M0 0 C1.32 1.32 2.64 2.64 4 4 C2.95125002 6.62187494 2.35068687 7.79371361 -0.125 9.25 C-0.74375 9.4975 -1.3625 9.745 -2 10 C-2 9.34 -2 8.68 -2 8 C-3.6396875 8.99 -3.6396875 8.99 -5.3125 10 C-7.93707538 11.58464929 -8.8256378 12 -12 12 C-12.99 11.34 -13.98 10.68 -15 10 C-14.41992188 9.78085937 -13.83984375 9.56171875 -13.2421875 9.3359375 C-7.57931432 7.0371474 -4.05324884 4.57289613 0 0 Z " fill="#E9BF75" transform="translate(188,325)"/>
<path d="M0 0 C0 0.66 0 1.32 0 2 C0.99 1.67 1.98 1.34 3 1 C5.33299825 0.96045766 7.66708189 0.95598268 10 1 C4.16147982 4.89234679 -1.65200895 5.2864115 -8.4375 5.125 C-9.16904297 5.11597656 -9.90058594 5.10695313 -10.65429688 5.09765625 C-12.43634298 5.07436153 -14.21821759 5.0385019 -16 5 C-16 4.67 -16 4.34 -16 4 C-13.36 3.67 -10.72 3.34 -8 3 C-8.66 2.34 -9.32 1.68 -10 1 C-6.1496895 -1.56687367 -4.41430237 -0.83288724 0 0 Z " fill="#E7B878" transform="translate(176,347)"/>
<path d="M0 0 C-2.50248865 1.66832577 -4.41149187 2.62381674 -7.1875 3.625 C-7.90292969 3.88539063 -8.61835938 4.14578125 -9.35546875 4.4140625 C-9.89816406 4.60742188 -10.44085938 4.80078125 -11 5 C-9.61735163 7.86867231 -8.07851447 10.56024032 -6.375 13.25 C-5.70597656 14.30960937 -5.70597656 14.30960937 -5.0234375 15.390625 C-4.68570313 15.92171875 -4.34796875 16.4528125 -4 17 C-1.69 15.35 0.62 13.7 3 12 C1.76067171 15.43198603 0.49698489 18.30325632 -2 21 C-2.99 21 -3.98 21 -5 21 C-5.391875 20.154375 -5.78375 19.30875 -6.1875 18.4375 C-7.58214345 15.79248657 -8.88900968 13.76736246 -10.6875 11.4375 C-12.48955055 9.00958758 -12.9818157 8.17093246 -13.3125 5.0625 C-13.209375 4.381875 -13.10625 3.70125 -13 3 C-4.57142857 -0.42857143 -4.57142857 -0.42857143 0 0 Z " fill="#011226" transform="translate(141,393)"/>
<path d="M0 0 C1 3 1 3 0.07421875 4.98828125 C-0.61220703 6.13876953 -0.61220703 6.13876953 -1.3125 7.3125 C-4.66422136 13.59697755 -5.32309207 19.98844619 -6 27 C-6.99 27.33 -7.98 27.66 -9 28 C-9 29.65 -9 31.3 -9 33 C-9.33 33 -9.66 33 -10 33 C-10.72331861 20.46247737 -6.209148 10.54704592 0 0 Z " fill="#468BC1" transform="translate(74,428)"/>
<path d="M0 0 C0.33 0 0.66 0 1 0 C0.979375 0.78375 0.95875 1.5675 0.9375 2.375 C0.81315937 4.98114961 0.81315937 4.98114961 2 7 C0.45753705 10.75975344 -0.7741068 11.88499983 -4.4375 13.75 C-6.2009375 14.36875 -6.2009375 14.36875 -8 15 C-8.763125 15.268125 -9.52625 15.53625 -10.3125 15.8125 C-10.869375 15.874375 -11.42625 15.93625 -12 16 C-12.66 15.34 -13.32 14.68 -14 14 C-12.96875 13.484375 -11.9375 12.96875 -10.875 12.4375 C-5.83899718 9.57148214 -1.84594849 5.53784547 0 0 Z " fill="#D3D3D5" transform="translate(254,304)"/>
<path d="M0 0 C0.45531951 6.37447319 -0.36582623 10.67223068 -4 16 C-6.5 18.5625 -6.5 18.5625 -9 20 C-11.3125 19.75 -11.3125 19.75 -13 19 C-11.7934375 18.1028125 -11.7934375 18.1028125 -10.5625 17.1875 C-7.77672016 15.19052724 -7.77672016 15.19052724 -7 12 C-6.34 12 -5.68 12 -5 12 C-2.95535072 9.05570504 -1.77906076 6.47238509 -1 3 C-1.55429687 3.16757813 -2.10859375 3.33515625 -2.6796875 3.5078125 C-3.76636719 3.81332031 -3.76636719 3.81332031 -4.875 4.125 C-5.95394531 4.43824219 -5.95394531 4.43824219 -7.0546875 4.7578125 C-7.69664062 4.83773437 -8.33859375 4.91765625 -9 5 C-9.66 4.34 -10.32 3.68 -11 3 C-9.73160474 2.49384702 -8.46016898 1.99530901 -7.1875 1.5 C-6.12595703 1.08234375 -6.12595703 1.08234375 -5.04296875 0.65625 C-3 0 -3 0 0 0 Z " fill="#EBC086" transform="translate(328,107)"/>
<path d="M0 0 C2.64752004 2.57784846 4.94432065 4.91648098 7 8 C4 8 4 8 1 6 C1 5.01 1 4.02 1 3 C-0.0828125 4.1446875 -0.0828125 4.1446875 -1.1875 5.3125 C-3.71721237 7.72978071 -6.00061185 9.26351212 -9 11 C-9.495 11.5775 -9.99 12.155 -10.5 12.75 C-11.2425 13.36875 -11.2425 13.36875 -12 14 C-14.6875 13.6875 -14.6875 13.6875 -17 13 C-14.24109616 10.88693047 -11.41900868 8.94686006 -8.5 7.0625 C-5.31656698 4.95944128 -2.54441127 2.876291 0 0 Z " fill="#E4B982" transform="translate(191,257)"/>
<path d="M0 0 C0.66 0.33 1.32 0.66 2 1 C-2.03523352 5.81123996 -6.04467233 10.13242719 -11 14 C-12.5625 12.75 -12.5625 12.75 -14 11 C-13.875 8.875 -13.875 8.875 -13 7 C-10 6 -10 6 -7 7 C-7 6.34 -7 5.68 -7 5 C-6.401875 4.9175 -5.80375 4.835 -5.1875 4.75 C-2.4033704 3.79544128 -1.56688858 2.42867729 0 0 Z " fill="#F4C17B" transform="translate(206,330)"/>
<path d="M0 0 C1.65 0.33 3.3 0.66 5 1 C2 3 2 3 0 3 C0 3.78375 0 4.5675 0 5.375 C0 6.91666667 0 8.45833333 0 10 C0.33 10.66 0.66 11.32 1 12 C0.01 12 -0.98 12 -2 12 C-4.18777466 13.9375006 -4.18777466 13.9375006 -6 16 C-6.66 14.68 -7.32 13.36 -8 12 C-5.36 8.04 -2.72 4.08 0 0 Z " fill="#429AE0" transform="translate(222,404)"/>
<path d="M0 0 C0.33 0 0.66 0 1 0 C1.3176201 7.78169243 0.11463406 15.31538364 -1 23 C-1.19321438 24.36060532 -1.38592693 25.721282 -1.578125 27.08203125 C-2.04716379 30.38875474 -2.5212618 33.69466924 -3 37 C-3.33 37 -3.66 37 -4 37 C-4.02685095 34.52076199 -4.04676547 32.0418116 -4.0625 29.5625 C-4.07506836 28.50192383 -4.07506836 28.50192383 -4.08789062 27.41992188 C-4.09653588 25.61306441 -4.05220011 23.80612397 -4 22 C-3.67 21.67 -3.34 21.34 -3 21 C-2.76346477 18.47403741 -2.57826308 15.96892793 -2.4375 13.4375 C-2.39431641 12.72658203 -2.35113281 12.01566406 -2.30664062 11.28320312 C-2.20028223 9.52238088 -2.09961154 7.7612168 -2 6 C-1.34 6 -0.68 6 0 6 C0 4.02 0 2.04 0 0 Z " fill="#2A0401" transform="translate(165,442)"/>
<path d="M0 0 C0.66 0 1.32 0 2 0 C2.33582586 6.15680741 1.6666643 11.8854113 0.625 17.9375 C0.43587036 19.07433228 0.43587036 19.07433228 0.24291992 20.23413086 C-0.75327238 25.75327238 -0.75327238 25.75327238 -3 28 C-2.86722656 26.81664062 -2.73445312 25.63328125 -2.59765625 24.4140625 C-1.68775628 16.28000402 -0.78841255 8.14692971 0 0 Z " fill="#041429" transform="translate(151,432)"/>
<path d="M0 0 C1.32 0.33 2.64 0.66 4 1 C3.67 2.65 3.34 4.3 3 6 C3.99 6.66 4.98 7.32 6 8 C6 7.34 6 6.68 6 6 C6.99 6 7.98 6 9 6 C8.34 7.65 7.68 9.3 7 11 C4 11 4 11 2.17578125 9.46875 C1.56089844 8.8190625 0.94601563 8.169375 0.3125 7.5 C-0.31011719 6.8503125 -0.93273437 6.200625 -1.57421875 5.53125 C-2.04472656 5.0259375 -2.51523438 4.520625 -3 4 C-2.01 3.67 -1.02 3.34 0 3 C0 2.01 0 1.02 0 0 Z " fill="#267BB9" transform="translate(193,399)"/>
<path d="M0 0 C0.33 0 0.66 0 1 0 C1 5.28 1 10.56 1 16 C-1.64 16 -4.28 16 -7 16 C-6.34 14.68 -5.68 13.36 -5 12 C-3.68 12 -2.36 12 -1 12 C-1.01160156 11.21753906 -1.02320313 10.43507813 -1.03515625 9.62890625 C-1.04417969 8.61699219 -1.05320313 7.60507812 -1.0625 6.5625 C-1.07410156 5.55316406 -1.08570313 4.54382813 -1.09765625 3.50390625 C-1 1 -1 1 0 0 Z " fill="#F7C483" transform="translate(135,280)"/>
<path d="M0 0 C3.21524305 1.40844718 5.32183868 3.10344786 7.75 5.625 C8.67039063 6.57246094 8.67039063 6.57246094 9.609375 7.5390625 C10.06828125 8.02117187 10.5271875 8.50328125 11 9 C10.34 10.65 9.68 12.3 9 14 C8.67 14 8.34 14 8 14 C7.7525 12.9275 7.505 11.855 7.25 10.75 C6.00116854 7.00350563 4.97511342 5.47926118 2 3 C-2.86088797 5.0832377 -5.9167623 8.13911203 -8 13 C-8.77734375 11.296875 -8.77734375 11.296875 -9 9 C-7.12890625 6.640625 -7.12890625 6.640625 -4.5625 4.25 C-3.71816406 3.45078125 -2.87382812 2.6515625 -2.00390625 1.828125 C-1.34261719 1.22484375 -0.68132812 0.6215625 0 0 Z " fill="#D75538" transform="translate(167,404)"/>
<path d="M0 0 C1 3 1 3 -0.1875 5.875 C-1.92092637 8.86366616 -3.67293565 11.44773587 -6 14 C-6.66 14 -7.32 14 -8 14 C-9.66965451 14.31802943 -11.33678518 14.64984951 -13 15 C-12.34 14.38125 -11.68 13.7625 -11 13.125 C-6.94330155 9.09168309 -3.51970455 4.49788547 0 0 Z " fill="#CACACA" transform="translate(221,339)"/>
<path d="M0 0 C4.39366678 0.50213335 6.87182342 1.87182342 10 5 C10.8125 7.75 10.8125 7.75 11 10 C10.01 10.495 10.01 10.495 9 11 C7.88625 9.8553125 7.88625 9.8553125 6.75 8.6875 C4.18744911 6.0392196 4.18744911 6.0392196 1.6875 4.375 C1.130625 3.92125 0.57375 3.4675 0 3 C0 2.01 0 1.02 0 0 Z " fill="#389BEA" transform="translate(336,149)"/>
<path d="M0 0 C1.32 0 2.64 0 4 0 C5.60725635 3.21451269 5.05748185 6.43612536 5 10 C5.66 10 6.32 10 7 10 C7 15.28 7 20.56 7 26 C6.67 26 6.34 26 6 26 C5.01 18.08 4.02 10.16 3 2 C2.34 2 1.68 2 1 2 C0.67 2.66 0.34 3.32 0 4 C0 2.68 0 1.36 0 0 Z " fill="#2B0401" transform="translate(166,438)"/>
<path d="M0 0 C3.963981 4.4303317 4.44628586 7.71976904 4.20703125 13.5859375 C3.96320072 16.42909348 3.5879894 19.20705037 3 22 C2.67 22 2.34 22 2 22 C1.96132812 20.30230469 1.96132812 20.30230469 1.921875 18.5703125 C1.86560374 17.08850257 1.80825618 15.60673323 1.75 14.125 C1.73582031 13.37863281 1.72164062 12.63226563 1.70703125 11.86328125 C1.64013659 9.42861619 1.64013659 9.42861619 1 6 C-1.50941208 3.96505659 -2.75305374 4 -6 4 C-2.25 0 -2.25 0 0 0 Z " fill="#4B8ABB" transform="translate(147,426)"/>
<path d="M0 0 C1.98 0 3.96 0 6 0 C6 5.28 6 10.56 6 16 C5.34 15.67 4.68 15.34 4 15 C4 11.37 4 7.74 4 4 C2.68 3.67 1.36 3.34 0 3 C0 2.01 0 1.02 0 0 Z " fill="#F6C484" transform="translate(178,280)"/>
<path d="M0 0 C0.66 0.33 1.32 0.66 2 1 C1.1875 3.4375 1.1875 3.4375 0 6 C-0.99 6.33 -1.98 6.66 -3 7 C-3.33 7.66 -3.66 8.32 -4 9 C-5.32 9 -6.64 9 -8 9 C-7.45712148 5.19985035 -5.88535357 3.46103687 -3 1 C-2.01 0.67 -1.02 0.34 0 0 Z " fill="#3F97DC" transform="translate(288,151)"/>
<path d="M0 0 C8 1 8 1 16 2 C16 3.32 16 4.64 16 6 C15.33613281 5.77183594 14.67226562 5.54367187 13.98828125 5.30859375 C13.10527344 5.02113281 12.22226563 4.73367188 11.3125 4.4375 C10.44238281 4.14746094 9.57226562 3.85742188 8.67578125 3.55859375 C4.67916334 2.7242633 1.80814172 3.73061943 -2 5 C-2 4.01 -2 3.02 -2 2 C-1.34 2 -0.68 2 0 2 C0 1.34 0 0.68 0 0 Z " fill="#021123" transform="translate(188,391)"/>
<path d="M0 0 C3.3 0.66 6.6 1.32 10 2 C9.01 3.485 9.01 3.485 8 5 C6.68 5 5.36 5 4 5 C1.26780807 6.91859167 1.26780807 6.91859167 -1 9 C-2.0326802 6.21176345 -2.04509293 5.1322726 -1.0625 2.25 C-0.711875 1.5075 -0.36125 0.765 0 0 Z " fill="#1E0603" transform="translate(162,401)"/>
<path d="M0 0 C0.66 0.33 1.32 0.66 2 1 C2.37890625 2.890625 2.37890625 2.890625 2.5625 5.25 C2.79536797 7.90892885 3.07926081 10.38045191 3.625 13 C3.74875 13.66 3.8725 14.32 4 15 C3 16 3 16 -0.37890625 16.09765625 C-1.77347077 16.09098369 -3.16801743 16.07902532 -4.5625 16.0625 C-5.27341797 16.05798828 -5.98433594 16.05347656 -6.71679688 16.04882812 C-8.47790013 16.03700864 -10.23896036 16.01907263 -12 16 C-12 15.67 -12 15.34 -12 15 C-5.565 14.505 -5.565 14.505 1 14 C0.67 9.38 0.34 4.76 0 0 Z " fill="#230201" transform="translate(173,465)"/>
<path d="M0 0 C1.31223496 3.93670488 0.24296256 6.12488144 -1 10 C-0.34 10 0.32 10 1 10 C1 11.32 1 12.64 1 14 C0.01 14 -0.98 14 -2 14 C-2.33 13.01 -2.66 12.02 -3 11 C-3.99 11 -4.98 11 -6 11 C-4.54955729 6.89041233 -2.48889248 3.56741255 0 0 Z " fill="#458EC9" transform="translate(213,418)"/>
<path d="M0 0 C-0.33 0.99 -0.66 1.98 -1 3 C-5.455 3.495 -5.455 3.495 -10 4 C-10 4.66 -10 5.32 -10 6 C-10.99 6.33 -11.98 6.66 -13 7 C-13.66 6.34 -14.32 5.68 -15 5 C-9.79981505 0.64308829 -6.77267164 -0.12778626 0 0 Z " fill="#504F54" transform="translate(315,80)"/>
<path d="M0 0 C1.125 3.3125 1.125 3.3125 2 7 C1.01 8.485 1.01 8.485 0 10 C-5 4.375 -5 4.375 -5 1 C-2 0 -2 0 0 0 Z " fill="#E5B97D" transform="translate(303,116)"/>
<path d="M0 0 C1.32 0 2.64 0 4 0 C5.01866229 1.65532623 6.01810813 3.32260138 7 5 C8.32303717 5.3721042 9.65737935 5.70630173 11 6 C12.75 8.0625 12.75 8.0625 14 10 C13.34 10.66 12.68 11.32 12 12 C10.37133456 10.56665422 8.74719006 9.12817021 7.125 7.6875 C6.22007812 6.88699219 5.31515625 6.08648437 4.3828125 5.26171875 C2 3 2 3 0 0 Z " fill="#EABF8A" transform="translate(130,333)"/>
<path d="M0 0 C0.66 0.33 1.32 0.66 2 1 C-0.32078838 7.18876902 -4.76303277 11.08469623 -10 15 C-10.66 15 -11.32 15 -12 15 C-11.34 13.68 -10.68 12.36 -10 11 C-9.01 11 -8.02 11 -7 11 C-6.7525 10.4225 -6.505 9.845 -6.25 9.25 C-4.83400344 6.70120619 -3.05276785 5.05276785 -1 3 C-0.67 2.01 -0.34 1.02 0 0 Z " fill="#1F0B03" transform="translate(189,319)"/>
<path d="M0 0 C3.45553206 3.13301573 5.62312058 6.42606047 7.875 10.5 C8.51179688 11.6240625 9.14859375 12.748125 9.8046875 13.90625 C11 17 11 17 10.1953125 19.40625 C9.80085938 19.9321875 9.40640625 20.458125 9 21 C8.82984375 20.41992188 8.6596875 19.83984375 8.484375 19.2421875 C6.92620928 14.2195895 5.2852928 10.1331103 2 6 C1.34 6 0.68 6 0 6 C0 4.02 0 2.04 0 0 Z " fill="#488ABD" transform="translate(258,424)"/>
<path d="M0 0 C0.99 0.33 1.98 0.66 3 1 C1.68 1.33 0.36 1.66 -1 2 C-1 2.99 -1 3.98 -1 5 C-1.639375 5.28875 -2.27875 5.5775 -2.9375 5.875 C-5.15206079 6.82823451 -5.15206079 6.82823451 -6 9 C-9.0625 9.625 -9.0625 9.625 -12 10 C-8.30166776 6.07752641 -4.57577783 2.8810453 0 0 Z " fill="#488CC0" transform="translate(92,412)"/>
<path d="M0 0 C5.27291614 0.53805267 9.39935018 1.4236361 14 4 C14.6953125 6.609375 14.6953125 6.609375 15 9 C14.33613281 8.59007812 13.67226562 8.18015625 12.98828125 7.7578125 C12.10527344 7.21898437 11.22226563 6.68015625 10.3125 6.125 C9.44238281 5.59132813 8.57226562 5.05765625 7.67578125 4.5078125 C5.16608918 3.09359186 2.69700931 2.00105211 0 1 C0 0.67 0 0.34 0 0 Z " fill="#021125" transform="translate(236,408)"/>
<path d="M0 0 C1.875 0.6875 1.875 0.6875 4 2 C4.66666667 3.66666667 5.33333333 5.33333333 6 7 C8.01735205 8.34410262 8.01735205 8.34410262 10 9 C8.68 9.99 7.36 10.98 6 12 C4.99157547 10.56839732 3.99352109 9.12948547 3 7.6875 C2.1646875 6.48673828 2.1646875 6.48673828 1.3125 5.26171875 C0 3 0 3 0 0 Z " fill="#287CBC" transform="translate(131,399)"/>
<path d="M0 0 C0.33 0 0.66 0 1 0 C2.35384615 6.4 2.35384615 6.4 0.5625 9.4375 C0.046875 9.953125 -0.46875 10.46875 -1 11 C0.65 11 2.3 11 4 11 C4 11.33 4 11.66 4 12 C1.69 12 -0.62 12 -3 12 C-3.34833144 7.12335991 -2.41685712 4.22949995 0 0 Z " fill="#458BC3" transform="translate(275,156)"/>
<path d="M0 0 C2.95664482 5.72098754 3.10755105 10.65448788 3 17 C-0.00000292 12.49999562 -1.34483213 10.22072417 -0.625 4.75 C-0.51414062 3.85796875 -0.40328125 2.9659375 -0.2890625 2.046875 C-0.19367188 1.37140625 -0.09828125 0.6959375 0 0 Z " fill="#4389C1" transform="translate(269,444)"/>
<path d="M0 0 C2.475 0.495 2.475 0.495 5 1 C5.33 2.98 5.66 4.96 6 7 C4.34385343 7.38218767 2.67542976 7.71395102 1 8 C0 7 0 7 -0.0625 3.4375 C-0.041875 2.303125 -0.02125 1.16875 0 0 Z " fill="#FAB650" transform="translate(233,292)"/>
<path d="M0 0 C-2.64 2.64 -5.28 5.28 -8 8 C-8.66 6.68 -9.32 5.36 -10 4 C-4.7704918 -1.59016393 -4.7704918 -1.59016393 0 0 Z " fill="#379BEB" transform="translate(288,150)"/>
<path d="M0 0 C2.55659906 4.94275818 3.11373522 8.60286149 3.0625 14.1875 C3.05347656 15.45980469 3.04445312 16.73210937 3.03515625 18.04296875 C3.02355469 19.01878906 3.01195312 19.99460937 3 21 C2.67 21 2.34 21 2 21 C0.79556805 13.94546999 -0.28100502 7.16562789 0 0 Z " fill="#4688BC" transform="translate(187,448)"/>
<path d="M0 0 C2.98704569 0.49784095 4.39324263 1.26216175 7 3 C10.44771821 3.02048149 13.89925406 2.55037297 17 1 C16.67 2.32 16.34 3.64 16 5 C5.02407002 5.63019694 5.02407002 5.63019694 0.75 3 C0.1725 2.34 -0.405 1.68 -1 1 C-0.67 0.67 -0.34 0.34 0 0 Z " fill="#468EC5" transform="translate(190,428)"/>
<path d="M0 0 C0.33 0 0.66 0 1 0 C1.40214229 6.16618181 -0.03181664 11.17745757 -2 17 C-2.33 17 -2.66 17 -3 17 C-3.40368295 10.54107286 -2.5915262 5.93891422 0 0 Z " fill="#DCB17E" transform="translate(215,305)"/>
<path d="M0 0 C0 3 0 3 -1.5 4.6875 C-1.995 5.120625 -2.49 5.55375 -3 6 C-3.66 5.34 -4.32 4.68 -5 4 C-3.35 2.68 -1.7 1.36 0 0 Z M-6 5 C-5.67 5.66 -5.34 6.32 -5 7 C-5.66 7 -6.32 7 -7 7 C-7 7.66 -7 8.32 -7 9 C-8.53125 10.2890625 -8.53125 10.2890625 -10.5 11.625 C-11.1496875 12.07101563 -11.799375 12.51703125 -12.46875 12.9765625 C-12.9740625 13.31429687 -13.479375 13.65203125 -14 14 C-12.4169423 9.7257442 -9.49431596 7.73468206 -6 5 Z " fill="#191919" transform="translate(133,194)"/>
<path d="M0 0 C0 0.66 0 1.32 0 2 C-1.32 2.33 -2.64 2.66 -4 3 C-4 3.66 -4 4.32 -4 5 C-3.34 5.33 -2.68 5.66 -2 6 C-8.625 6.25 -8.625 6.25 -12 4 C-9.03 4.495 -9.03 4.495 -6 5 C-6 4.34 -6 3.68 -6 3 C-7.32 2.34 -8.64 1.68 -10 1 C-6.61981469 -0.04005702 -3.5219721 -0.08004482 0 0 Z " fill="#EBB46F" transform="translate(317,122)"/>
<path d="M0 0 C2.31 0 4.62 0 7 0 C7.66 2.31 8.32 4.62 9 7 C6.69 6.34 4.38 5.68 2 5 C2 3.68 2 2.36 2 1 C1.34 0.67 0.68 0.34 0 0 Z " fill="#DADADA" transform="translate(231,386)"/>
<path d="M0 0 C5.75 0.75 5.75 0.75 8 3 C7.34 3 6.68 3 6 3 C6 3.99 6 4.98 6 6 C3.36 5.34 0.72 4.68 -2 4 C-1.34 2.68 -0.68 1.36 0 0 Z " fill="#D5D6D7" transform="translate(207,377)"/>
<path d="M0 0 C-0.33 0.66 -0.66 1.32 -1 2 C-1.66 2 -2.32 2 -3 2 C-3 2.66 -3 3.32 -3 4 C-6.63 4 -10.26 4 -14 4 C-11.58592302 2.39061535 -9.65955563 1.34509262 -7 0.3125 C-5.9790625 -0.09548828 -5.9790625 -0.09548828 -4.9375 -0.51171875 C-3 -1 -3 -1 0 0 Z " fill="#E5B67B" transform="translate(318,112)"/>
<path d="M0 0 C5.43614072 2.7832093 9.93265026 5.40783094 14 10 C10.85262818 9.30058404 7.97411124 8.23921302 5 7 C5 6.34 5 5.68 5 5 C4.360625 4.731875 3.72125 4.46375 3.0625 4.1875 C1 3 1 3 0 0 Z " fill="#4988BA" transform="translate(240,410)"/>
<path d="M0 0 C0 1.65 0 3.3 0 5 C-3.96 6.98 -3.96 6.98 -8 9 C-8 6 -8 6 -6.5625 4.4375 C-6.046875 3.963125 -5.53125 3.48875 -5 3 C-4.67 2.34 -4.34 1.68 -4 1 C-1 0 -1 0 0 0 Z " fill="#ECBF83" transform="translate(184,374)"/>
<path d="M0 0 C2.27183419 2.46115371 2.9736202 3.73620199 3.3125 7.125 C3 10 3 10 1 12 C-0.625 9.9375 -0.625 9.9375 -2 7 C-1.1875 3.1875 -1.1875 3.1875 0 0 Z " fill="#C9C9CB" transform="translate(228,324)"/>
<path d="M0 0 C2.9156164 3.54039134 5.50127818 7.1626772 8 11 C7.34 11.66 6.68 12.32 6 13 C5.525625 12.505 5.05125 12.01 4.5625 11.5 C3.24076302 9.88457803 3.24076302 9.88457803 2 10 C1.34 6.7 0.68 3.4 0 0 Z " fill="#488BC1" transform="translate(122,418)"/>
<path d="M0 0 C0.33 0 0.66 0 1 0 C1 4.95 1 9.9 1 15 C0.67 15 0.34 15 0 15 C0 10.05 0 5.1 0 0 Z M-8 9 C-6.8553125 10.175625 -6.8553125 10.175625 -5.6875 11.375 C-3.09108195 14.07257717 -3.09108195 14.07257717 0 16 C-6.875 15.125 -6.875 15.125 -8 14 C-8.04063832 12.33382885 -8.042721 10.66611905 -8 9 Z " fill="#160501" transform="translate(104,289)"/>
<path d="M0 0 C-1.08891999 3.26675996 -1.84851256 3.95793848 -4.4375 6.0625 C-6.38553905 7.66078674 -8.21573944 9.21573944 -10 11 C-9.45276317 7.62537285 -8.9451 5.91765 -7 3 C-6.34 3.33 -5.68 3.66 -5 4 C-5 3.01 -5 2.02 -5 1 C-2 0 -2 0 0 0 Z " fill="#041324" transform="translate(285,145)"/>
<path d="M0 0 C0.25 7.625 0.25 7.625 -2 11 C-1.67 8.36 -1.34 5.72 -1 3 C-1.55429687 3.16757813 -2.10859375 3.33515625 -2.6796875 3.5078125 C-3.76636719 3.81332031 -3.76636719 3.81332031 -4.875 4.125 C-5.95394531 4.43824219 -5.95394531 4.43824219 -7.0546875 4.7578125 C-7.69664062 4.83773437 -8.33859375 4.91765625 -9 5 C-9.66 4.34 -10.32 3.68 -11 3 C-9.73160474 2.49384702 -8.46016898 1.99530901 -7.1875 1.5 C-6.12595703 1.08234375 -6.12595703 1.08234375 -5.04296875 0.65625 C-3 0 -3 0 0 0 Z " fill="#E2BB8A" transform="translate(328,107)"/>
<path d="M0 0 C0.66 0.33 1.32 0.66 2 1 C-2.82029598 6.78435518 -2.82029598 6.78435518 -6.1796875 7.3984375 C-8.375 7.375 -8.375 7.375 -12 7 C-9.5129261 5.34195074 -7.02682498 3.80125522 -4.4375 2.3125 C-3.65246094 1.85488281 -2.86742187 1.39726562 -2.05859375 0.92578125 C-1.37925781 0.62027344 -0.69992188 0.31476563 0 0 Z " fill="#220F07" transform="translate(195,343)"/>
<path d="M0 0 C0.33 0 0.66 0 1 0 C1.29003091 5.60726423 1.13444318 9.1241995 -2 14 C-2.99 14.66 -3.98 15.32 -5 16 C-4.5978125 14.824375 -4.5978125 14.824375 -4.1875 13.625 C-2.70766479 9.10760831 -1.35097726 4.55729662 0 0 Z " fill="#210D07" transform="translate(215,312)"/>
<path d="M0 0 C0 2 0 4 0 6 C-3.3125 7.625 -3.3125 7.625 -7 9 C-7.99 8.34 -8.98 7.68 -10 7 C-8.906875 6.401875 -7.81375 5.80375 -6.6875 5.1875 C-4.08925871 3.70955303 -1.95650507 2.30177067 0 0 Z " fill="#C0C0C2" transform="translate(250,311)"/>
<path d="M0 0 C0.66 0.33 1.32 0.66 2 1 C0.90033225 2.29549899 -0.20491801 3.58626071 -1.3125 4.875 C-1.92738281 5.59429687 -2.54226562 6.31359375 -3.17578125 7.0546875 C-5 9 -5 9 -8 11 C-7.67 9.02 -7.34 7.04 -7 5 C-6.401875 4.9175 -5.80375 4.835 -5.1875 4.75 C-2.4033704 3.79544128 -1.56688858 2.42867729 0 0 Z " fill="#E6BD83" transform="translate(206,330)"/>
<path d="M0 0 C0.66 0.33 1.32 0.66 2 1 C2 1.66 2 2.32 2 3 C2.99 3 3.98 3 5 3 C5.33 2.01 5.66 1.02 6 0 C6 2.64 6 5.28 6 8 C2.42895561 6.12050295 0.45255699 4.82946843 -1 1 C-0.67 0.67 -0.34 0.34 0 0 Z " fill="#D6D7D8" transform="translate(206,193)"/>
<path d="M0 0 C0.66 0 1.32 0 2 0 C2 0.66 2 1.32 2 2 C2.66 2 3.32 2 4 2 C4 2.99 4 3.98 4 5 C5.98 5 7.96 5 10 5 C10 3.68 10 2.36 10 1 C10.99 1.33 11.98 1.66 13 2 C12.34 3.32 11.68 4.64 11 6 C8.36 6 5.72 6 3 6 C2.01 4.02 1.02 2.04 0 0 Z " fill="#E0513B" transform="translate(161,418)"/>
<path d="M0 0 C3.3503698 0.57764997 4.68233772 1.58576846 7 4 C9.09989652 5.17574711 9.09989652 5.17574711 11 6 C11 6.66 11 7.32 11 8 C7.63833578 7.40501518 5.78840322 6.25635842 3.25 4 C2.63640625 3.46375 2.0228125 2.9275 1.390625 2.375 C0.93171875 1.92125 0.4728125 1.4675 0 1 C0 0.67 0 0.34 0 0 Z " fill="#170702" transform="translate(149,326)"/>
<path d="M0 0 C2.35448165 2.55068845 2.98327924 3.71017358 3.1875 7.25 C3.125625 8.1575 3.06375 9.065 3 10 C2.01 10 1.02 10 0 10 C-1.125 2.25 -1.125 2.25 0 0 Z " fill="#E1A95C" transform="translate(97,291)"/>
<path d="M0 0 C2.79828356 0.38597015 3.8205884 0.80136573 5.75 2.9375 C7 5 7 5 7 7 C5.0625 6.6875 5.0625 6.6875 3 6 C2.67 5.01 2.34 4.02 2 3 C1.34 3 0.68 3 0 3 C0 2.01 0 1.02 0 0 Z " fill="#4696D6" transform="translate(336,153)"/>
<path d="M0 0 C0.99 0.99 1.98 1.98 3 3 C2.67 3.99 2.34 4.98 2 6 C0.35 6.33 -1.3 6.66 -3 7 C-3.1875 4.625 -3.1875 4.625 -3 2 C-2.01 1.34 -1.02 0.68 0 0 Z " fill="#3B91D5" transform="translate(119,413)"/>
<path d="M0 0 C-1.75 3.875 -1.75 3.875 -4 5 C-5.99960012 5.039992 -8.00047242 5.04346799 -10 5 C-10 4.34 -10 3.68 -10 3 C-9.05125 2.690625 -8.1025 2.38125 -7.125 2.0625 C-1.05882353 0 -1.05882353 0 0 0 Z " fill="#DEB57B" transform="translate(175,315)"/>
<path d="M0 0 C0.66 0.66 1.32 1.32 2 2 C1.88679697 5.28288776 0.71715137 6.30354487 -1.5625 8.75 C-2.7690625 9.86375 -2.7690625 9.86375 -4 11 C-3.52269162 9.5410574 -3.04308958 8.08286504 -2.5625 6.625 C-2.29566406 5.81289062 -2.02882813 5.00078125 -1.75390625 4.1640625 C-1 2 -1 2 0 0 Z " fill="#4E4D51" transform="translate(125,226)"/>
<path d="M0 0 C3.65316671 1.24976756 4.78065836 1.67098753 7 5 C6.625 7.1875 6.625 7.1875 6 9 C3 5.25 3 5.25 3 3 C2.01 3.33 1.02 3.66 0 4 C0 2.68 0 1.36 0 0 Z " fill="#021022" transform="translate(144,423)"/>
<path d="M0 0 C5.34844008 0.53484401 9.35796103 2.46690767 14 5 C12 6 12 6 9.6875 5.29296875 C8.800625 4.92816406 7.91375 4.56335938 7 4.1875 C6.113125 3.83042969 5.22625 3.47335937 4.3125 3.10546875 C2 2 2 2 0 0 Z " fill="#DCB782" transform="translate(144,345)"/>
<path d="M0 0 C0.33 0.99 0.66 1.98 1 3 C-0.98 4.32 -2.96 5.64 -5 7 C-6.32 6.01 -7.64 5.02 -9 4 C-6.03 2.68 -3.06 1.36 0 0 Z " fill="#E2B97B" transform="translate(182,331)"/>
<path d="M0 0 C2.475 0.495 2.475 0.495 5 1 C5.96070434 3.88211302 6.10581883 5.69850044 6.0625 8.6875 C6.05347656 9.49574219 6.04445312 10.30398438 6.03515625 11.13671875 C6.02355469 11.75160156 6.01195312 12.36648438 6 13 C5.01 13 4.02 13 3 13 C3.2475 11.783125 3.495 10.56625 3.75 9.3125 C4.22550545 5.74303912 4.13855674 5.21453947 2.0625 2 C1.381875 1.34 0.70125 0.68 0 0 Z " fill="#1B0801" transform="translate(235,288)"/>
<path d="M0 0 C0.33 1.32 0.66 2.64 1 4 C0.01 4.33 -0.98 4.66 -2 5 C-3.20882096 7.00016466 -3.20882096 7.00016466 -4 9 C-4.99 9 -5.98 9 -7 9 C-6.67 7.68 -6.34 6.36 -6 5 C-5.34 5.33 -4.68 5.66 -4 6 C-2.68 4.02 -1.36 2.04 0 0 Z " fill="#01142A" transform="translate(203,404)"/>
<path d="M0 0 C2.97 0.495 2.97 0.495 6 1 C6 1.66 6 2.32 6 3 C5.360625 3.103125 4.72125 3.20625 4.0625 3.3125 C3.381875 3.539375 2.70125 3.76625 2 4 C1.67 4.99 1.34 5.98 1 7 C0.01 6.67 -0.98 6.34 -2 6 C-1.34 5.67 -0.68 5.34 0 5 C0 3.35 0 1.7 0 0 Z " fill="#359AEA" transform="translate(222,407)"/>
<path d="M0 0 C3.49167166 0.29097264 4.76200675 0.75539583 7.25 3.3125 C8.79239724 5.68118147 9.59162913 7.24349664 10 10 C9.34 9.67 8.68 9.34 8 9 C8 8.34 8 7.68 8 7 C7.01 6.67 6.02 6.34 5 6 C3.15500602 4.12382302 1.6316401 2.07262391 0 0 Z " fill="#051730" transform="translate(251,417)"/>
<path d="M0 0 C-1.36983503 3.16115776 -1.9890638 3.9927092 -5 6 C-5.33 4.02 -5.66 2.04 -6 0 C-3.50907189 -1.24546405 -2.58919267 -0.7767578 0 0 Z " fill="#3077AC" transform="translate(151,396)"/>
<path d="M0 0 C2.97 0.495 2.97 0.495 6 1 C6.33 2.32 6.66 3.64 7 5 C6.34 5 5.68 5 5 5 C4.34 5.66 3.68 6.32 3 7 C2.01 4.69 1.02 2.38 0 0 Z " fill="#170C09" transform="translate(145,319)"/>
<path d="M0 0 C4.21878192 -0.19622241 7.17010894 0.19769832 11 2 C10.67 3.32 10.34 4.64 10 6 C6.59244728 4.07119658 3.25852365 2.1723491 0 0 Z " fill="#031227" transform="translate(333,144)"/>
<path d="M0 0 C3.36720387 1.39332574 4.9859524 2.9789286 7 6 C3.75791433 5.64950425 2.38472296 5.43778819 0.1875 2.9375 C-0.4003125 1.9784375 -0.4003125 1.9784375 -1 1 C-0.67 0.67 -0.34 0.34 0 0 Z " fill="#111214" transform="translate(209,200)"/>
<path d="M0 0 C0.99 0.66 1.98 1.32 3 2 C2.6875 3.9375 2.6875 3.9375 2 6 C1.01 6.33 0.02 6.66 -1 7 C-1.625 5.1875 -1.625 5.1875 -2 3 C-1.34 2.01 -0.68 1.02 0 0 Z " fill="#3A8FD2" transform="translate(216,413)"/>
<path d="M0 0 C2.475 0.99 2.475 0.99 5 2 C4.67 3.65 4.34 5.3 4 7 C2.35 5.68 0.7 4.36 -1 3 C-0.67 2.01 -0.34 1.02 0 0 Z " fill="#1B0D05" transform="translate(194,257)"/>
<path d="M0 0 C0.66 0.33 1.32 0.66 2 1 C2 1.66 2 2.32 2 3 C1.34 3 0.68 3 0 3 C0 3.66 0 4.32 0 5 C-1.98 5.99 -1.98 5.99 -4 7 C-4.66 6.34 -5.32 5.68 -6 5 C-4.02 3.35 -2.04 1.7 0 0 Z " fill="#4C4B4F" transform="translate(139,209)"/>
<path d="M0 0 C0 3 0 3 -1.8125 5.1875 C-4 7 -4 7 -7 7 C-3.86206897 0 -3.86206897 0 0 0 Z " fill="#4994D0" transform="translate(288,153)"/>
<path d="M0 0 C1.32 0 2.64 0 4 0 C3.67 0.99 3.34 1.98 3 3 C2.34 2.67 1.68 2.34 1 2 C0.71125 2.804375 0.4225 3.60875 0.125 4.4375 C-1 7 -1 7 -3 8 C-1.125 2.25 -1.125 2.25 0 0 Z " fill="#031229" transform="translate(188,424)"/>
<path d="M0 0 C1.65 0.33 3.3 0.66 5 1 C3.8125 3 3.8125 3 2 5 C-0.6875 5.25 -0.6875 5.25 -3 5 C-3 4.01 -3 3.02 -3 2 C-2.01 2 -1.02 2 0 2 C0 1.34 0 0.68 0 0 Z " fill="#D7D8DA" transform="translate(427,32)"/>
<path d="M0 0 C1.46015291 0.28241641 2.91809793 0.57626614 4.375 0.875 C5.18710938 1.03742188 5.99921875 1.19984375 6.8359375 1.3671875 C9 2 9 2 11 4 C7.06225823 4.36630156 5.43460229 4.30233203 2.125 2 C1.42375 1.34 0.7225 0.68 0 0 Z " fill="#4E8DBE" transform="translate(227,406)"/>
<path d="M0 0 C1.32 1.65 2.64 3.3 4 5 C2.02 5.66 0.04 6.32 -2 7 C-1.42415568 4.61435923 -0.77772405 2.33317216 0 0 Z " fill="#030C1F" transform="translate(184,396)"/>
<path d="M0 0 C0.99 0.99 1.98 1.98 3 3 C0.69 3.66 -1.62 4.32 -4 5 C-4 4.01 -4 3.02 -4 2 C-2.68 1.34 -1.36 0.68 0 0 Z " fill="#1B0D04" transform="translate(319,106)"/>
<path d="M0 0 C5.27272727 2.63636364 5.27272727 2.63636364 7 5 C6.67 6.32 6.34 7.64 6 9 C4.02 6.03 2.04 3.06 0 0 Z " fill="#03162F" transform="translate(125,422)"/>
<path d="M0 0 C1.65 0.33 3.3 0.66 5 1 C4.01 1.66 3.02 2.32 2 3 C0.64748503 4.31387169 -0.68945377 5.64426252 -2 7 C-2.66 6.67 -3.32 6.34 -4 6 C-2.68 4.02 -1.36 2.04 0 0 Z " fill="#4786B7" transform="translate(222,404)"/>
<path d="M0 0 C1.65 1.65 3.3 3.3 5 5 C4.34 5.66 3.68 6.32 3 7 C2.01 6.34 1.02 5.68 0 5 C-0.1875 2.375 -0.1875 2.375 0 0 Z " fill="#E8B978" transform="translate(139,338)"/>
<path d="M0 0 C0.66 0 1.32 0 2 0 C4.13586678 3.20380017 4.23132175 4.01939967 4.125 7.6875 C4.10695313 8.49574219 4.08890625 9.30398437 4.0703125 10.13671875 C4.03550781 11.05904297 4.03550781 11.05904297 4 12 C3.67 12 3.34 12 3 12 C2 8 1 4 0 0 Z " fill="#000B1E" transform="translate(349,156)"/>
<path d="M0 0 C0.66 0.33 1.32 0.66 2 1 C1.690625 1.70125 1.38125 2.4025 1.0625 3.125 C-0.03302678 6.08936657 -0.56422992 8.87698108 -1 12 C-1.33 12 -1.66 12 -2 12 C-2.05422947 10.5629191 -2.09289723 9.12524538 -2.125 7.6875 C-2.14820313 6.88699219 -2.17140625 6.08648437 -2.1953125 5.26171875 C-2 3 -2 3 0 0 Z " fill="#010B1E" transform="translate(273,156)"/>
<path d="M0 0 C0.33 0 0.66 0 1 0 C1 2.31 1 4.62 1 7 C-0.65 7.66 -2.3 8.32 -4 9 C-2.68 6.03 -1.36 3.06 0 0 Z " fill="#2E1C0D" transform="translate(327,115)"/>
<path d="M0 0 C0.66 0.99 1.32 1.98 2 3 C1.34 4.32 0.68 5.64 0 7 C-0.66 7 -1.32 7 -2 7 C-2.66 5.68 -3.32 4.36 -4 3 C-3.01 2.67 -2.02 2.34 -1 2 C-0.67 1.34 -0.34 0.68 0 0 Z " fill="#DEDFE1" transform="translate(342,74)"/>
<path d="M0 0 C3.465 1.98 3.465 1.98 7 4 C6.67 4.66 6.34 5.32 6 6 C3.08482708 4.92598892 1.22189824 4.22189824 -1 2 C-0.67 1.34 -0.34 0.68 0 0 Z " fill="#D1D1D1" transform="translate(327,65)"/>
<path d="M0 0 C2.4375 0.375 2.4375 0.375 5 1 C5.33 1.66 5.66 2.32 6 3 C8.01669827 4.13350534 8.01669827 4.13350534 10 5 C3.47692308 4.50769231 3.47692308 4.50769231 1.0625 1.9375 C0.711875 1.298125 0.36125 0.65875 0 0 Z " fill="#021933" transform="translate(192,427)"/>
<path d="M0 0 C2.31 0.33 4.62 0.66 7 1 C5.68 2.32 4.36 3.64 3 5 C2.01 3.35 1.02 1.7 0 0 Z " fill="#2E76AC" transform="translate(134,406)"/>
<path d="M0 0 C0 3 0 3 -1.5 4.6875 C-1.995 5.120625 -2.49 5.55375 -3 6 C-3.66 5.34 -4.32 4.68 -5 4 C-3.35 2.68 -1.7 1.36 0 0 Z " fill="#121212" transform="translate(133,194)"/>
<path d="M0 0 C0 0.66 0 1.32 0 2 C-2.95664519 3.4783226 -5.74229737 3.06032783 -9 3 C-4.5 0 -4.5 0 0 0 Z " fill="#C8C9CB" transform="translate(198,32)"/>
</svg>
